<svg xmlns="http://www.w3.org/2000/svg" xmlns:xlink="http://www.w3.org/1999/xlink" width="500" zoomAndPan="magnify" viewBox="0 0 375 374.999991" height="500" preserveAspectRatio="xMidYMid meet" version="1.0"><defs><clipPath id="f4d312ad32"><path d="M 305 183 L 324 183 L 324 199.269531 L 305 199.269531 Z M 305 183 " clip-rule="nonzero"/></clipPath><clipPath id="c43ea1de63"><path d="M 50.421875 176.019531 L 66 176.019531 L 66 188 L 50.421875 188 Z M 50.421875 176.019531 " clip-rule="nonzero"/></clipPath></defs><g clip-path="url(#f4d312ad32)"><path fill="#000000" d="M 305.257812 184.21875 C 305.515625 183.664062 305.605469 183.292969 306.265625 183.324219 C 306.527344 183.335938 306.785156 183.378906 307.035156 183.445312 C 307.644531 183.605469 308.207031 183.921875 308.71875 184.285156 C 309.789062 185.039062 310.65625 186.089844 311.429688 187.144531 C 313.277344 189.664062 314.65625 192.503906 316.195312 195.21875 C 316.546875 195.835938 316.898438 196.519531 317.3125 197.144531 C 318.140625 194.996094 319.230469 192.957031 320.257812 190.902344 C 320.832031 189.75 321.390625 188.582031 321.859375 187.382812 C 322.097656 186.769531 322.316406 186.148438 322.492188 185.519531 C 322.648438 184.964844 322.65625 184.28125 323.03125 183.84375 C 323.199219 183.648438 323.867188 183.582031 323.851562 183.898438 C 323.988281 184.410156 323.8125 184.96875 323.699219 185.480469 C 323.550781 186.140625 323.363281 186.789062 323.148438 187.433594 C 322.722656 188.703125 322.203125 189.933594 321.65625 191.152344 C 320.53125 193.667969 319.238281 196.128906 318.40625 198.769531 C 318.246094 199.269531 317.40625 199.042969 317.140625 198.792969 C 316.117188 197.824219 315.414062 196.550781 314.71875 195.339844 C 313.820312 193.757812 312.972656 192.144531 312.054688 190.574219 C 311.171875 189.054688 310.226562 187.507812 309.019531 186.226562 C 308.601562 185.78125 308.136719 185.339844 307.621094 185.097656 C 307.382812 184.984375 307.179688 184.9375 306.941406 184.90625 C 306.761719 184.886719 306.601562 184.910156 306.417969 184.859375 C 306.085938 184.761719 305.886719 184.570312 305.515625 184.558594 C 305.339844 184.554688 305.167969 184.402344 305.257812 184.21875 " fill-opacity="1" fill-rule="nonzero"/></g><path fill="#000000" d="M 284.507812 180.941406 C 287.894531 181.921875 289.9375 185.195312 291.417969 188.195312 C 292.632812 190.652344 293.539062 193.492188 295.113281 195.796875 C 295.621094 194.03125 296.605469 192.382812 297.53125 190.847656 C 298.132812 189.84375 298.765625 188.867188 299.390625 187.882812 C 299.492188 187.71875 300.09375 186.492188 300.441406 186.679688 C 300.902344 186.929688 300.054688 188.097656 299.898438 188.390625 C 299.410156 189.316406 298.898438 190.230469 298.417969 191.167969 C 297.433594 193.101562 296.417969 195.207031 296.21875 197.40625 C 296.171875 197.945312 295.199219 197.734375 294.96875 197.488281 C 292.761719 195.128906 291.679688 191.890625 290.324219 189.007812 C 289.0625 186.328125 287.5625 183.605469 284.898438 182.230469 C 284.789062 182.597656 284.703125 182.96875 284.65625 183.351562 C 284.628906 183.574219 284.082031 183.910156 283.984375 183.589844 C 283.765625 182.84375 283.667969 182.097656 283.605469 181.324219 C 283.5625 180.84375 284.222656 180.859375 284.507812 180.941406 " fill-opacity="1" fill-rule="nonzero"/><path fill="#000000" d="M 261.792969 184.425781 C 261.832031 183.648438 263.066406 184.269531 263.285156 184.574219 C 265.84375 188.179688 268.3125 191.839844 270.824219 195.476562 C 272.78125 191.453125 273.621094 186.34375 277.832031 184.082031 C 278.089844 183.941406 278.179688 184.253906 277.964844 184.394531 C 275.925781 185.710938 275.054688 188.359375 274.269531 190.546875 C 273.472656 192.765625 272.875 195.097656 271.777344 197.191406 C 271.484375 197.746094 270.605469 197.371094 270.335938 196.992188 C 267.882812 193.519531 265.503906 189.996094 263.0625 186.515625 C 262.996094 186.636719 262.921875 186.75 262.828125 186.847656 C 262.714844 186.96875 262.332031 187.078125 262.214844 186.902344 C 261.734375 186.1875 261.75 185.269531 261.792969 184.425781 " fill-opacity="1" fill-rule="nonzero"/><path fill="#000000" d="M 237.367188 182.691406 C 238.355469 182.746094 239.246094 183.570312 239.917969 184.238281 C 240.628906 184.945312 241.246094 185.757812 241.824219 186.578125 C 243.097656 188.390625 244.167969 190.335938 245.402344 192.171875 C 245.898438 192.90625 246.414062 193.667969 247.0625 194.277344 C 247.320312 194.519531 247.421875 194.605469 247.65625 194.726562 C 247.820312 194.808594 247.914062 194.839844 248.15625 194.789062 C 248.765625 194.660156 249.226562 193.96875 249.589844 193.457031 C 250.226562 192.554688 250.734375 191.554688 251.25 190.574219 C 251.910156 189.324219 252.585938 188.082031 253.332031 186.882812 C 253.929688 185.921875 254.503906 184.902344 255.347656 184.136719 C 255.601562 183.90625 256.460938 183.953125 256.074219 184.375 C 255.347656 185.171875 254.867188 186.207031 254.453125 187.191406 C 253.90625 188.496094 253.421875 189.828125 252.867188 191.132812 C 252.375 192.285156 251.847656 193.445312 251.203125 194.523438 C 250.773438 195.230469 250.226562 196.011719 249.421875 196.316406 C 247.839844 196.910156 246.347656 195.535156 245.394531 194.425781 C 243.992188 192.808594 242.941406 190.890625 241.800781 189.082031 C 241.15625 188.054688 240.5 187.023438 239.734375 186.078125 C 239.253906 185.480469 238.777344 185.058594 238.238281 184.660156 C 238.125 184.941406 237.988281 185.210938 237.824219 185.484375 C 237.738281 185.628906 237.476562 185.808594 237.335938 185.628906 C 236.796875 184.949219 236.789062 184.042969 236.777344 183.207031 C 236.773438 182.847656 237.035156 182.671875 237.367188 182.691406 " fill-opacity="1" fill-rule="nonzero"/><path fill="#000000" d="M 219.183594 181.464844 C 219.476562 181.28125 219.945312 181.445312 220.195312 181.644531 C 223.609375 184.402344 225.40625 188.476562 227.429688 192.296875 C 228.289062 191.0625 228.765625 189.5625 229.296875 188.171875 C 230.042969 186.222656 230.914062 184.394531 232.363281 182.875 C 232.582031 182.644531 233.5 182.699219 233.195312 183.113281 C 230.660156 186.574219 231.269531 191.578125 228.191406 194.757812 C 227.75 195.210938 226.980469 194.488281 226.78125 194.140625 C 224.679688 190.425781 223.09375 186.039062 219.925781 183.070312 C 219.777344 183.144531 219.628906 183.203125 219.472656 183.257812 C 219.402344 183.28125 219.253906 183.300781 219.199219 183.230469 C 218.6875 182.605469 218.394531 181.960938 219.183594 181.464844 " fill-opacity="1" fill-rule="nonzero"/><path fill="#000000" d="M 195.675781 183.171875 C 195.808594 182.226562 197.488281 183.335938 197.539062 183.375 C 198.011719 183.71875 198.425781 184.171875 198.84375 184.578125 C 199.683594 185.402344 200.519531 186.226562 201.328125 187.078125 C 202.722656 188.542969 204.132812 189.980469 205.59375 191.371094 C 206.835938 190.300781 207.742188 188.910156 208.671875 187.566406 C 209.78125 185.972656 210.839844 184.355469 212.113281 182.886719 C 212.386719 182.574219 213.441406 182.652344 213.097656 183.179688 C 210.78125 186.699219 209.859375 191.09375 206.457031 193.84375 C 206.074219 194.152344 205.710938 193.957031 205.386719 193.671875 C 203.660156 192.152344 202.074219 190.476562 200.488281 188.8125 C 199.707031 187.992188 198.953125 187.140625 198.179688 186.3125 C 197.738281 185.835938 197.285156 185.375 196.855469 184.886719 C 196.59375 184.589844 195.601562 183.691406 195.675781 183.171875 " fill-opacity="1" fill-rule="nonzero"/><path fill="#000000" d="M 175.125 181.023438 C 175.152344 180.96875 174.894531 180.914062 175.261719 180.863281 C 175.425781 180.839844 175.617188 180.902344 175.773438 180.953125 C 176.179688 181.070312 176.582031 181.261719 176.96875 181.441406 C 177.753906 181.804688 178.527344 182.214844 179.28125 182.632812 C 180.625 183.375 181.941406 184.203125 183.085938 185.238281 C 184.835938 186.820312 186.375 189.058594 188.660156 189.875 C 189.25 188.8125 189.34375 187.503906 189.390625 186.316406 C 189.449219 184.96875 189.5625 183.625 189.644531 182.28125 C 189.664062 181.9375 190.417969 181.746094 190.445312 182.15625 C 190.5625 183.890625 191.015625 185.566406 191.058594 187.308594 C 191.097656 188.992188 190.859375 190.722656 189.894531 192.132812 C 189.769531 192.320312 189.480469 192.34375 189.289062 192.292969 C 186.699219 191.605469 184.882812 189.449219 183.09375 187.578125 C 182.136719 186.582031 181.101562 185.746094 179.953125 184.988281 C 178.21875 183.84375 176.207031 182.988281 174.644531 181.613281 C 174.199219 181.21875 175.082031 181.113281 175.125 181.023438 " fill-opacity="1" fill-rule="nonzero"/><path fill="#000000" d="M 150.632812 182.136719 C 151.246094 181.1875 152.621094 180.957031 153.640625 181.167969 C 154.785156 181.402344 155.722656 182.136719 156.527344 182.957031 C 158.082031 184.53125 159.183594 186.5 160.429688 188.316406 C 161.203125 189.449219 162.097656 191.082031 163.589844 190.289062 C 165.171875 189.449219 165.890625 187.121094 166.484375 185.558594 C 167.359375 183.257812 167.894531 180.855469 168.710938 178.539062 C 168.804688 178.269531 169.585938 178.132812 169.496094 178.488281 C 168.96875 180.617188 168.699219 182.808594 168.203125 184.945312 C 167.71875 187.042969 167.101562 189.441406 165.566406 191.027344 C 162.066406 194.640625 158.703125 188.046875 157.089844 185.746094 C 156.40625 184.777344 155.679688 183.789062 154.753906 183.039062 C 153.550781 182.058594 152.539062 182.050781 151.054688 182.46875 C 150.820312 182.535156 150.429688 182.453125 150.632812 182.136719 " fill-opacity="1" fill-rule="nonzero"/><path fill="#000000" d="M 130.144531 181.847656 C 130.632812 180.410156 132.824219 181.316406 133.703125 181.800781 C 135.261719 182.660156 136.585938 183.921875 137.84375 185.167969 C 139.113281 186.421875 140.316406 187.738281 141.554688 189.023438 C 142.039062 189.523438 142.53125 190.019531 143.054688 190.480469 C 143.171875 190.585938 143.289062 190.6875 143.410156 190.785156 C 144.058594 188.28125 144.707031 185.675781 144.804688 183.105469 C 144.824219 182.652344 145.796875 182.488281 145.84375 182.964844 C 146.019531 184.65625 146.101562 186.339844 145.894531 188.03125 C 145.691406 189.707031 145.328125 191.34375 144.90625 192.976562 C 144.796875 193.40625 144.332031 193.445312 144 193.285156 C 142.917969 192.761719 142.015625 191.816406 141.175781 190.96875 C 139.964844 189.753906 138.820312 188.472656 137.640625 187.230469 C 136.566406 186.09375 135.460938 184.957031 134.230469 183.988281 C 133.714844 183.582031 133.125 183.148438 132.488281 182.957031 C 131.898438 182.777344 131.351562 182.964844 130.691406 182.671875 C 130.390625 182.542969 130.015625 182.222656 130.144531 181.847656 " fill-opacity="1" fill-rule="nonzero"/><path fill="#000000" d="M 109.792969 180.078125 C 111.53125 179.625 113.472656 180.6875 114.824219 181.699219 C 116.300781 182.800781 117.558594 184.164062 118.898438 185.417969 C 120.144531 186.59375 121.578125 187.804688 123.363281 187.917969 C 124.5625 187.992188 124.972656 187.085938 125.164062 186.035156 C 125.464844 184.375 125.5625 182.683594 125.957031 181.039062 C 126.039062 180.695312 126.882812 180.511719 126.828125 180.953125 C 126.585938 182.789062 126.96875 184.621094 126.859375 186.464844 C 126.78125 187.8125 126.457031 189.546875 124.902344 189.863281 C 123.09375 190.226562 121.101562 189.085938 119.734375 188.007812 C 118.171875 186.78125 116.871094 185.261719 115.441406 183.894531 C 114.707031 183.195312 113.9375 182.511719 113.066406 181.996094 C 112.425781 181.613281 111.8125 181.457031 111.136719 181.363281 C 111.179688 181.5 111.230469 181.648438 111.234375 181.765625 C 111.238281 182.214844 110.304688 182.347656 110.15625 181.949219 C 109.925781 181.351562 109.542969 181.125 109.523438 180.429688 C 109.523438 180.292969 109.65625 180.113281 109.792969 180.078125 " fill-opacity="1" fill-rule="nonzero"/><path fill="#000000" d="M 91.933594 179.097656 C 93.210938 179.273438 94.519531 180.351562 95.496094 181.148438 C 96.570312 182.019531 97.554688 183 98.535156 183.960938 C 100.269531 185.664062 101.984375 187.347656 104.105469 188.511719 C 105.078125 186.292969 105.480469 183.855469 105.863281 181.472656 C 105.914062 181.164062 106.644531 180.929688 106.632812 181.332031 C 106.550781 184.175781 106.671875 187.316406 105.515625 189.96875 C 105.324219 190.40625 104.882812 190.335938 104.511719 190.175781 C 101.964844 189.074219 99.894531 187.03125 97.949219 185.097656 C 97.015625 184.164062 96.085938 183.21875 95.09375 182.34375 C 94.382812 181.71875 93.652344 181.105469 92.867188 180.570312 C 92.40625 180.257812 91.6875 179.992188 91.390625 179.511719 C 91.226562 179.25 91.773438 179.078125 91.933594 179.097656 " fill-opacity="1" fill-rule="nonzero"/><path fill="#000000" d="M 69.128906 179.042969 C 69.433594 178.992188 69.617188 178.839844 69.929688 178.832031 C 70.242188 178.820312 70.550781 178.878906 70.84375 178.976562 C 71.53125 179.203125 72.148438 179.570312 72.738281 179.976562 C 73.894531 180.777344 74.871094 181.808594 75.941406 182.714844 C 77.308594 183.867188 78.542969 185.179688 79.871094 186.375 C 80.628906 187.058594 81.40625 187.761719 82.257812 188.324219 C 82.808594 188.683594 83.007812 188.851562 83.644531 188.617188 C 85.148438 188.058594 85.472656 185.886719 85.75 184.527344 C 86.144531 182.566406 86.1875 180.535156 86.617188 178.589844 C 86.671875 178.339844 87.257812 178.160156 87.203125 178.511719 C 86.921875 180.378906 87.234375 182.324219 87.1875 184.203125 C 87.144531 186.011719 86.894531 188.453125 85.386719 189.671875 C 83.824219 190.9375 82.148438 189.867188 80.816406 188.839844 C 79.125 187.527344 77.613281 185.992188 76.0625 184.515625 C 75.347656 183.835938 74.433594 183.070312 73.628906 182.347656 C 72.328125 181.171875 70.757812 179.980469 68.984375 179.6875 C 68.460938 179.601562 68.765625 179.101562 69.128906 179.042969 " fill-opacity="1" fill-rule="nonzero"/><g clip-path="url(#c43ea1de63)"><path fill="#000000" d="M 51.921875 176.292969 C 53.644531 177.914062 55.105469 179.804688 56.671875 181.582031 C 57.933594 183.011719 59.308594 184.632812 60.960938 185.625 C 64.429688 187.710938 64.792969 181.964844 64.636719 179.84375 C 64.605469 179.378906 65.609375 179.238281 65.675781 179.703125 C 66 182.03125 66.6875 187.734375 63.074219 187.851562 C 61.566406 187.898438 60.148438 186.871094 59.058594 185.933594 C 57.539062 184.632812 56.210938 183.105469 54.9375 181.5625 C 53.617188 179.960938 52.339844 178.316406 50.996094 176.734375 C 50.597656 176.261719 51.605469 175.992188 51.921875 176.292969 " fill-opacity="1" fill-rule="nonzero"/></g></svg>