<svg xmlns="http://www.w3.org/2000/svg" xmlns:xlink="http://www.w3.org/1999/xlink" width="500" zoomAndPan="magnify" viewBox="0 0 375 374.999991" height="500" preserveAspectRatio="xMidYMid meet" version="1.0"><defs><clipPath id="1845aa087d"><path d="M 51 183 L 70 183 L 70 199.269531 L 51 199.269531 Z M 51 183 " clip-rule="nonzero"/></clipPath><clipPath id="523f1f59a2"><path d="M 309 176.019531 L 324.921875 176.019531 L 324.921875 188 L 309 188 Z M 309 176.019531 " clip-rule="nonzero"/></clipPath></defs><g clip-path="url(#1845aa087d)"><path fill="#000000" d="M 69.734375 184.21875 C 69.476562 183.664062 69.386719 183.292969 68.726562 183.324219 C 68.464844 183.335938 68.207031 183.378906 67.957031 183.445312 C 67.347656 183.605469 66.785156 183.921875 66.273438 184.285156 C 65.203125 185.039062 64.335938 186.089844 63.5625 187.144531 C 61.714844 189.664062 60.335938 192.503906 58.796875 195.21875 C 58.445312 195.835938 58.09375 196.519531 57.679688 197.144531 C 56.855469 194.996094 55.761719 192.957031 54.734375 190.902344 C 54.160156 189.75 53.601562 188.582031 53.132812 187.382812 C 52.894531 186.769531 52.675781 186.148438 52.5 185.519531 C 52.34375 184.964844 52.335938 184.28125 51.960938 183.84375 C 51.792969 183.648438 51.125 183.582031 51.140625 183.898438 C 51.003906 184.410156 51.179688 184.96875 51.292969 185.480469 C 51.441406 186.140625 51.628906 186.789062 51.847656 187.433594 C 52.269531 188.703125 52.789062 189.933594 53.335938 191.152344 C 54.460938 193.667969 55.753906 196.128906 56.585938 198.769531 C 56.746094 199.269531 57.585938 199.042969 57.851562 198.792969 C 58.875 197.824219 59.578125 196.550781 60.273438 195.339844 C 61.171875 193.757812 62.019531 192.144531 62.9375 190.574219 C 63.820312 189.054688 64.765625 187.507812 65.972656 186.226562 C 66.390625 185.78125 66.855469 185.339844 67.371094 185.097656 C 67.613281 184.984375 67.8125 184.9375 68.050781 184.90625 C 68.230469 184.886719 68.390625 184.910156 68.574219 184.859375 C 68.910156 184.761719 69.105469 184.570312 69.476562 184.558594 C 69.652344 184.554688 69.824219 184.402344 69.734375 184.21875 " fill-opacity="1" fill-rule="nonzero"/></g><path fill="#000000" d="M 90.484375 180.941406 C 87.097656 181.921875 85.054688 185.195312 83.574219 188.195312 C 82.359375 190.652344 81.453125 193.492188 79.878906 195.796875 C 79.371094 194.03125 78.386719 192.382812 77.464844 190.847656 C 76.863281 189.84375 76.226562 188.867188 75.601562 187.882812 C 75.5 187.71875 74.898438 186.492188 74.550781 186.679688 C 74.089844 186.929688 74.9375 188.097656 75.09375 188.390625 C 75.582031 189.316406 76.097656 190.230469 76.574219 191.167969 C 77.558594 193.101562 78.574219 195.207031 78.773438 197.40625 C 78.820312 197.945312 79.792969 197.734375 80.023438 197.488281 C 82.230469 195.128906 83.3125 191.890625 84.667969 189.007812 C 85.929688 186.328125 87.429688 183.605469 90.09375 182.230469 C 90.203125 182.597656 90.289062 182.96875 90.335938 183.351562 C 90.363281 183.574219 90.910156 183.910156 91.007812 183.589844 C 91.226562 182.84375 91.324219 182.097656 91.386719 181.324219 C 91.429688 180.84375 90.773438 180.859375 90.484375 180.941406 " fill-opacity="1" fill-rule="nonzero"/><path fill="#000000" d="M 113.199219 184.425781 C 113.160156 183.648438 111.925781 184.269531 111.707031 184.574219 C 109.148438 188.179688 106.679688 191.839844 104.167969 195.476562 C 102.210938 191.453125 101.371094 186.34375 97.160156 184.082031 C 96.902344 183.941406 96.8125 184.253906 97.027344 184.394531 C 99.066406 185.710938 99.9375 188.359375 100.722656 190.546875 C 101.519531 192.765625 102.117188 195.097656 103.214844 197.191406 C 103.507812 197.746094 104.386719 197.371094 104.65625 196.992188 C 107.109375 193.519531 109.488281 189.996094 111.929688 186.515625 C 111.996094 186.636719 112.070312 186.75 112.164062 186.847656 C 112.277344 186.96875 112.660156 187.078125 112.777344 186.902344 C 113.261719 186.1875 113.242188 185.269531 113.199219 184.425781 " fill-opacity="1" fill-rule="nonzero"/><path fill="#000000" d="M 137.625 182.691406 C 136.636719 182.746094 135.75 183.570312 135.074219 184.238281 C 134.363281 184.945312 133.746094 185.757812 133.167969 186.578125 C 131.894531 188.390625 130.824219 190.335938 129.589844 192.171875 C 129.097656 192.90625 128.578125 193.667969 127.929688 194.277344 C 127.671875 194.519531 127.570312 194.605469 127.335938 194.726562 C 127.171875 194.808594 127.078125 194.839844 126.835938 194.789062 C 126.226562 194.660156 125.765625 193.96875 125.402344 193.457031 C 124.765625 192.554688 124.257812 191.554688 123.742188 190.574219 C 123.082031 189.324219 122.40625 188.082031 121.660156 186.882812 C 121.0625 185.921875 120.488281 184.902344 119.644531 184.136719 C 119.390625 183.90625 118.53125 183.953125 118.917969 184.375 C 119.644531 185.171875 120.125 186.207031 120.539062 187.191406 C 121.085938 188.496094 121.570312 189.828125 122.125 191.132812 C 122.617188 192.285156 123.144531 193.445312 123.789062 194.523438 C 124.21875 195.230469 124.765625 196.011719 125.570312 196.316406 C 127.152344 196.910156 128.644531 195.535156 129.597656 194.425781 C 131 192.808594 132.050781 190.890625 133.191406 189.082031 C 133.835938 188.054688 134.492188 187.023438 135.257812 186.078125 C 135.738281 185.480469 136.214844 185.058594 136.753906 184.660156 C 136.867188 184.941406 137.003906 185.210938 137.167969 185.484375 C 137.253906 185.628906 137.515625 185.808594 137.65625 185.628906 C 138.195312 184.949219 138.203125 184.042969 138.214844 183.207031 C 138.21875 182.847656 137.957031 182.671875 137.625 182.691406 " fill-opacity="1" fill-rule="nonzero"/><path fill="#000000" d="M 155.808594 181.464844 C 155.515625 181.28125 155.046875 181.445312 154.796875 181.644531 C 151.382812 184.402344 149.585938 188.476562 147.5625 192.296875 C 146.703125 191.0625 146.226562 189.5625 145.695312 188.171875 C 144.949219 186.222656 144.078125 184.394531 142.628906 182.875 C 142.410156 182.644531 141.492188 182.699219 141.796875 183.113281 C 144.332031 186.574219 143.726562 191.578125 146.800781 194.757812 C 147.242188 195.210938 148.015625 194.488281 148.210938 194.140625 C 150.3125 190.425781 151.898438 186.039062 155.066406 183.070312 C 155.214844 183.144531 155.363281 183.203125 155.519531 183.257812 C 155.589844 183.28125 155.738281 183.300781 155.792969 183.230469 C 156.304688 182.605469 156.597656 181.960938 155.808594 181.464844 " fill-opacity="1" fill-rule="nonzero"/><path fill="#000000" d="M 179.316406 183.171875 C 179.183594 182.226562 177.503906 183.335938 177.453125 183.375 C 176.980469 183.71875 176.566406 184.171875 176.148438 184.578125 C 175.308594 185.402344 174.472656 186.226562 173.664062 187.078125 C 172.269531 188.542969 170.859375 189.980469 169.398438 191.371094 C 168.15625 190.300781 167.25 188.910156 166.320312 187.566406 C 165.210938 185.972656 164.152344 184.355469 162.878906 182.886719 C 162.605469 182.574219 161.550781 182.652344 161.894531 183.179688 C 164.210938 186.699219 165.132812 191.09375 168.535156 193.84375 C 168.917969 194.152344 169.28125 193.957031 169.605469 193.671875 C 171.332031 192.152344 172.917969 190.476562 174.503906 188.8125 C 175.285156 187.992188 176.039062 187.140625 176.8125 186.3125 C 177.253906 185.835938 177.707031 185.375 178.136719 184.886719 C 178.398438 184.589844 179.390625 183.691406 179.316406 183.171875 " fill-opacity="1" fill-rule="nonzero"/><path fill="#000000" d="M 199.867188 181.023438 C 199.839844 180.96875 200.097656 180.914062 199.730469 180.863281 C 199.566406 180.839844 199.375 180.902344 199.21875 180.953125 C 198.8125 181.070312 198.410156 181.261719 198.023438 181.441406 C 197.238281 181.804688 196.46875 182.214844 195.710938 182.632812 C 194.367188 183.375 193.050781 184.203125 191.90625 185.238281 C 190.15625 186.820312 188.617188 189.058594 186.332031 189.875 C 185.742188 188.8125 185.648438 187.503906 185.601562 186.316406 C 185.542969 184.96875 185.429688 183.625 185.347656 182.28125 C 185.328125 181.9375 184.574219 181.746094 184.546875 182.15625 C 184.429688 183.890625 183.976562 185.566406 183.933594 187.308594 C 183.894531 188.992188 184.136719 190.722656 185.097656 192.132812 C 185.222656 192.320312 185.511719 192.34375 185.703125 192.292969 C 188.292969 191.605469 190.109375 189.449219 191.902344 187.578125 C 192.855469 186.582031 193.890625 185.746094 195.039062 184.988281 C 196.773438 183.84375 198.789062 182.988281 200.347656 181.613281 C 200.792969 181.21875 199.910156 181.113281 199.867188 181.023438 " fill-opacity="1" fill-rule="nonzero"/><path fill="#000000" d="M 224.359375 182.136719 C 223.746094 181.1875 222.371094 180.957031 221.351562 181.167969 C 220.207031 181.402344 219.269531 182.136719 218.464844 182.957031 C 216.910156 184.53125 215.808594 186.5 214.5625 188.316406 C 213.789062 189.449219 212.894531 191.082031 211.402344 190.289062 C 209.820312 189.449219 209.105469 187.121094 208.507812 185.558594 C 207.632812 183.257812 207.097656 180.855469 206.28125 178.539062 C 206.1875 178.269531 205.40625 178.132812 205.496094 178.488281 C 206.023438 180.617188 206.292969 182.808594 206.789062 184.945312 C 207.273438 187.042969 207.890625 189.441406 209.425781 191.027344 C 212.925781 194.640625 216.289062 188.046875 217.902344 185.746094 C 218.585938 184.777344 219.3125 183.789062 220.238281 183.039062 C 221.441406 182.058594 222.453125 182.050781 223.9375 182.46875 C 224.171875 182.535156 224.5625 182.453125 224.359375 182.136719 " fill-opacity="1" fill-rule="nonzero"/><path fill="#000000" d="M 244.847656 181.847656 C 244.359375 180.410156 242.167969 181.316406 241.289062 181.800781 C 239.730469 182.660156 238.410156 183.921875 237.148438 185.167969 C 235.882812 186.421875 234.675781 187.738281 233.4375 189.023438 C 232.953125 189.523438 232.460938 190.019531 231.941406 190.480469 C 231.820312 190.585938 231.703125 190.6875 231.582031 190.785156 C 230.933594 188.28125 230.285156 185.679688 230.1875 183.105469 C 230.167969 182.652344 229.195312 182.488281 229.148438 182.964844 C 228.972656 184.65625 228.890625 186.339844 229.097656 188.03125 C 229.300781 189.707031 229.664062 191.34375 230.085938 192.976562 C 230.195312 193.40625 230.660156 193.445312 230.992188 193.285156 C 232.074219 192.761719 232.976562 191.816406 233.820312 190.96875 C 235.027344 189.753906 236.171875 188.472656 237.351562 187.230469 C 238.425781 186.09375 239.53125 184.957031 240.761719 183.988281 C 241.277344 183.582031 241.867188 183.148438 242.503906 182.957031 C 243.09375 182.777344 243.640625 182.964844 244.300781 182.671875 C 244.601562 182.542969 244.976562 182.222656 244.847656 181.847656 " fill-opacity="1" fill-rule="nonzero"/><path fill="#000000" d="M 265.199219 180.078125 C 263.460938 179.625 261.523438 180.6875 260.167969 181.699219 C 258.691406 182.800781 257.433594 184.164062 256.09375 185.417969 C 254.847656 186.59375 253.414062 187.804688 251.628906 187.917969 C 250.429688 187.992188 250.019531 187.085938 249.828125 186.035156 C 249.527344 184.375 249.429688 182.683594 249.035156 181.039062 C 248.953125 180.695312 248.109375 180.511719 248.164062 180.953125 C 248.40625 182.789062 248.023438 184.621094 248.132812 186.464844 C 248.210938 187.8125 248.535156 189.546875 250.089844 189.863281 C 251.898438 190.226562 253.890625 189.085938 255.257812 188.007812 C 256.820312 186.78125 258.121094 185.261719 259.554688 183.894531 C 260.285156 183.195312 261.054688 182.511719 261.925781 181.996094 C 262.566406 181.613281 263.179688 181.457031 263.855469 181.363281 C 263.8125 181.5 263.761719 181.648438 263.757812 181.765625 C 263.753906 182.214844 264.6875 182.347656 264.839844 181.949219 C 265.066406 181.351562 265.449219 181.125 265.46875 180.429688 C 265.46875 180.292969 265.335938 180.113281 265.199219 180.078125 " fill-opacity="1" fill-rule="nonzero"/><path fill="#000000" d="M 283.0625 179.097656 C 281.78125 179.273438 280.472656 180.351562 279.496094 181.148438 C 278.425781 182.019531 277.4375 183 276.457031 183.960938 C 274.722656 185.664062 273.007812 187.351562 270.890625 188.511719 C 269.917969 186.292969 269.511719 183.855469 269.128906 181.472656 C 269.078125 181.164062 268.347656 180.929688 268.359375 181.332031 C 268.441406 184.175781 268.320312 187.316406 269.476562 189.96875 C 269.667969 190.40625 270.109375 190.335938 270.480469 190.175781 C 273.027344 189.074219 275.097656 187.03125 277.042969 185.097656 C 277.976562 184.164062 278.90625 183.21875 279.898438 182.34375 C 280.609375 181.71875 281.339844 181.105469 282.125 180.570312 C 282.585938 180.257812 283.304688 179.992188 283.601562 179.511719 C 283.765625 179.25 283.21875 179.078125 283.0625 179.097656 " fill-opacity="1" fill-rule="nonzero"/><path fill="#000000" d="M 305.863281 179.042969 C 305.558594 178.992188 305.375 178.839844 305.0625 178.832031 C 304.75 178.820312 304.441406 178.878906 304.148438 178.976562 C 303.464844 179.203125 302.84375 179.570312 302.253906 179.976562 C 301.097656 180.777344 300.125 181.808594 299.050781 182.714844 C 297.683594 183.867188 296.449219 185.179688 295.121094 186.375 C 294.363281 187.058594 293.585938 187.761719 292.734375 188.324219 C 292.183594 188.683594 291.984375 188.851562 291.347656 188.617188 C 289.84375 188.058594 289.519531 185.886719 289.242188 184.527344 C 288.847656 182.566406 288.804688 180.535156 288.375 178.589844 C 288.320312 178.339844 287.734375 178.160156 287.789062 178.511719 C 288.070312 180.378906 287.757812 182.324219 287.804688 184.203125 C 287.847656 186.011719 288.097656 188.453125 289.605469 189.671875 C 291.167969 190.9375 292.84375 189.867188 294.175781 188.839844 C 295.867188 187.527344 297.378906 185.992188 298.929688 184.515625 C 299.644531 183.835938 300.558594 183.070312 301.363281 182.347656 C 302.664062 181.171875 304.234375 179.980469 306.007812 179.6875 C 306.53125 179.601562 306.226562 179.101562 305.863281 179.042969 " fill-opacity="1" fill-rule="nonzero"/><g clip-path="url(#523f1f59a2)"><path fill="#000000" d="M 323.070312 176.292969 C 321.347656 177.914062 319.886719 179.804688 318.320312 181.582031 C 317.058594 183.011719 315.683594 184.632812 314.03125 185.625 C 310.5625 187.710938 310.199219 181.964844 310.355469 179.84375 C 310.386719 179.378906 309.382812 179.238281 309.316406 179.703125 C 308.992188 182.03125 308.304688 187.734375 311.917969 187.851562 C 313.425781 187.898438 314.84375 186.871094 315.933594 185.933594 C 317.453125 184.632812 318.78125 183.105469 320.054688 181.5625 C 321.375 179.960938 322.652344 178.316406 323.996094 176.734375 C 324.394531 176.261719 323.386719 175.992188 323.070312 176.292969 " fill-opacity="1" fill-rule="nonzero"/></g></svg>