<svg xmlns="http://www.w3.org/2000/svg" xmlns:xlink="http://www.w3.org/1999/xlink" width="500" zoomAndPan="magnify" viewBox="0 0 375 374.999991" height="500" preserveAspectRatio="xMidYMid meet" version="1.0"><defs><clipPath id="3a2c7ee24e"><path d="M 0 1.53125 L 373.5 1.53125 L 373.5 375 L 0 375 Z M 0 1.53125 " clip-rule="nonzero"/></clipPath></defs><g clip-path="url(#3a2c7ee24e)"><path fill="#cde5e9" d="M 373.5 188.28125 C 373.5 191.339844 373.425781 194.394531 373.273438 197.445312 C 373.125 200.5 372.898438 203.546875 372.601562 206.585938 C 372.300781 209.628906 371.925781 212.660156 371.480469 215.683594 C 371.03125 218.707031 370.507812 221.71875 369.910156 224.714844 C 369.316406 227.714844 368.644531 230.695312 367.902344 233.660156 C 367.160156 236.625 366.347656 239.570312 365.457031 242.492188 C 364.570312 245.417969 363.613281 248.320312 362.582031 251.195312 C 361.554688 254.074219 360.453125 256.925781 359.285156 259.75 C 358.113281 262.574219 356.875 265.367188 355.570312 268.128906 C 354.261719 270.890625 352.890625 273.621094 351.449219 276.316406 C 350.007812 279.011719 348.503906 281.667969 346.929688 284.292969 C 345.359375 286.914062 343.726562 289.492188 342.027344 292.035156 C 340.328125 294.578125 338.570312 297.074219 336.75 299.53125 C 334.929688 301.984375 333.046875 304.394531 331.109375 306.753906 C 329.171875 309.117188 327.175781 311.429688 325.121094 313.695312 C 323.070312 315.960938 320.964844 318.171875 318.800781 320.335938 C 316.640625 322.496094 314.429688 324.601562 312.164062 326.65625 C 309.898438 328.707031 307.585938 330.703125 305.222656 332.640625 C 302.859375 334.582031 300.453125 336.460938 297.996094 338.28125 C 295.542969 340.101562 293.042969 341.863281 290.503906 343.558594 C 287.960938 345.257812 285.378906 346.890625 282.757812 348.464844 C 280.136719 350.035156 277.480469 351.539062 274.785156 352.980469 C 272.085938 354.421875 269.359375 355.796875 266.597656 357.101562 C 263.832031 358.410156 261.039062 359.648438 258.214844 360.816406 C 255.390625 361.988281 252.542969 363.085938 249.664062 364.117188 C 246.785156 365.144531 243.886719 366.105469 240.960938 366.992188 C 238.035156 367.878906 235.089844 368.691406 232.125 369.4375 C 229.160156 370.179688 226.179688 370.847656 223.183594 371.445312 C 220.183594 372.039062 217.175781 372.5625 214.152344 373.011719 C 211.128906 373.460938 208.097656 373.832031 205.054688 374.132812 C 202.011719 374.433594 198.964844 374.65625 195.914062 374.808594 C 192.859375 374.957031 189.804688 375.03125 186.75 375.03125 C 183.695312 375.03125 180.640625 374.957031 177.585938 374.808594 C 174.535156 374.65625 171.488281 374.433594 168.445312 374.132812 C 165.402344 373.832031 162.371094 373.460938 159.347656 373.011719 C 156.324219 372.5625 153.3125 372.039062 150.316406 371.445312 C 147.320312 370.847656 144.339844 370.179688 141.375 369.4375 C 138.410156 368.691406 135.464844 367.878906 132.539062 366.992188 C 129.613281 366.105469 126.714844 365.144531 123.835938 364.117188 C 120.957031 363.085938 118.109375 361.988281 115.285156 360.816406 C 112.460938 359.648438 109.667969 358.410156 106.902344 357.101562 C 104.140625 355.796875 101.410156 354.421875 98.714844 352.980469 C 96.019531 351.539062 93.363281 350.035156 90.742188 348.464844 C 88.121094 346.890625 85.539062 345.257812 82.996094 343.558594 C 80.457031 341.863281 77.957031 340.101562 75.503906 338.28125 C 73.046875 336.460938 70.640625 334.582031 68.277344 332.640625 C 65.914062 330.703125 63.601562 328.707031 61.335938 326.65625 C 59.070312 324.601562 56.859375 322.496094 54.699219 320.335938 C 52.535156 318.171875 50.429688 315.960938 48.378906 313.695312 C 46.324219 311.429688 44.328125 309.117188 42.390625 306.753906 C 40.453125 304.394531 38.570312 301.984375 36.75 299.53125 C 34.929688 297.074219 33.171875 294.578125 31.472656 292.035156 C 29.773438 289.492188 28.140625 286.914062 26.570312 284.292969 C 24.996094 281.667969 23.492188 279.011719 22.050781 276.316406 C 20.609375 273.621094 19.238281 270.890625 17.929688 268.128906 C 16.625 265.367188 15.386719 262.574219 14.214844 259.75 C 13.046875 256.925781 11.945312 254.074219 10.917969 251.195312 C 9.886719 248.320312 8.929688 245.417969 8.042969 242.492188 C 7.152344 239.570312 6.339844 236.625 5.597656 233.660156 C 4.855469 230.695312 4.183594 227.714844 3.589844 224.714844 C 2.992188 221.71875 2.46875 218.707031 2.019531 215.683594 C 1.574219 212.660156 1.199219 209.628906 0.898438 206.585938 C 0.601562 203.546875 0.375 200.5 0.226562 197.445312 C 0.0742188 194.394531 0 191.339844 0 188.28125 C 0 185.226562 0.0742188 182.171875 0.226562 179.121094 C 0.375 176.066406 0.601562 173.019531 0.898438 169.976562 C 1.199219 166.9375 1.574219 163.902344 2.019531 160.878906 C 2.46875 157.855469 2.992188 154.847656 3.589844 151.847656 C 4.183594 148.851562 4.855469 145.871094 5.597656 142.90625 C 6.339844 139.941406 7.152344 136.996094 8.042969 134.070312 C 8.929688 131.148438 9.886719 128.246094 10.917969 125.367188 C 11.945312 122.492188 13.046875 119.640625 14.214844 116.816406 C 15.386719 113.992188 16.625 111.199219 17.929688 108.4375 C 19.238281 105.671875 20.609375 102.945312 22.050781 100.25 C 23.492188 97.554688 24.996094 94.894531 26.570312 92.273438 C 28.140625 89.652344 29.773438 87.070312 31.472656 84.53125 C 33.171875 81.988281 34.929688 79.492188 36.75 77.035156 C 38.570312 74.582031 40.453125 72.171875 42.390625 69.808594 C 44.328125 67.445312 46.324219 65.132812 48.378906 62.867188 C 50.429688 60.605469 52.535156 58.390625 54.699219 56.230469 C 56.859375 54.070312 59.070312 51.960938 61.335938 49.910156 C 63.601562 47.859375 65.914062 45.863281 68.277344 43.921875 C 70.640625 41.984375 73.046875 40.105469 75.503906 38.285156 C 77.957031 36.464844 80.457031 34.703125 82.996094 33.003906 C 85.539062 31.308594 88.121094 29.671875 90.742188 28.101562 C 93.363281 26.53125 96.019531 25.023438 98.714844 23.582031 C 101.410156 22.144531 104.140625 20.769531 106.902344 19.460938 C 109.667969 18.15625 112.460938 16.917969 115.285156 15.75 C 118.109375 14.578125 120.957031 13.480469 123.835938 12.449219 C 126.714844 11.417969 129.613281 10.460938 132.539062 9.574219 C 135.464844 8.6875 138.410156 7.871094 141.375 7.128906 C 144.339844 6.386719 147.320312 5.71875 150.316406 5.121094 C 153.3125 4.523438 156.324219 4.003906 159.347656 3.554688 C 162.371094 3.105469 165.402344 2.730469 168.445312 2.433594 C 171.488281 2.132812 174.535156 1.90625 177.585938 1.757812 C 180.640625 1.609375 183.695312 1.53125 186.75 1.53125 C 189.804688 1.53125 192.859375 1.609375 195.914062 1.757812 C 198.964844 1.90625 202.011719 2.132812 205.054688 2.433594 C 208.097656 2.730469 211.128906 3.105469 214.152344 3.554688 C 217.175781 4.003906 220.183594 4.523438 223.183594 5.121094 C 226.179688 5.71875 229.160156 6.386719 232.125 7.128906 C 235.089844 7.871094 238.035156 8.6875 240.960938 9.574219 C 243.886719 10.460938 246.785156 11.417969 249.664062 12.449219 C 252.542969 13.480469 255.390625 14.578125 258.214844 15.75 C 261.039062 16.917969 263.832031 18.15625 266.597656 19.460938 C 269.359375 20.769531 272.085938 22.144531 274.785156 23.582031 C 277.480469 25.023438 280.136719 26.53125 282.757812 28.101562 C 285.378906 29.671875 287.960938 31.308594 290.503906 33.003906 C 293.042969 34.703125 295.542969 36.464844 297.996094 38.285156 C 300.453125 40.105469 302.859375 41.984375 305.222656 43.921875 C 307.585938 45.863281 309.898438 47.859375 312.164062 49.910156 C 314.429688 51.960938 316.640625 54.070312 318.800781 56.230469 C 320.964844 58.390625 323.070312 60.605469 325.121094 62.867188 C 327.175781 65.132812 329.171875 67.445312 331.109375 69.808594 C 333.046875 72.171875 334.929688 74.582031 336.75 77.035156 C 338.570312 79.492188 340.328125 81.988281 342.027344 84.53125 C 343.726562 87.070312 345.359375 89.652344 346.929688 92.273438 C 348.503906 94.894531 350.007812 97.554688 351.449219 100.25 C 352.890625 102.945312 354.261719 105.671875 355.570312 108.4375 C 356.875 111.199219 358.113281 113.992188 359.285156 116.816406 C 360.453125 119.640625 361.554688 122.492188 362.582031 125.367188 C 363.613281 128.246094 364.570312 131.148438 365.457031 134.070312 C 366.347656 136.996094 367.160156 139.941406 367.902344 142.90625 C 368.644531 145.871094 369.316406 148.851562 369.910156 151.847656 C 370.507812 154.847656 371.03125 157.855469 371.480469 160.878906 C 371.925781 163.902344 372.300781 166.9375 372.601562 169.976562 C 372.898438 173.019531 373.125 176.066406 373.273438 179.121094 C 373.425781 182.171875 373.5 185.226562 373.5 188.28125 Z M 373.5 188.28125 " fill-opacity="1" fill-rule="nonzero"/></g><path fill="#80a8af" d="M 204.167969 284.6875 C 204.0625 284.6875 203.957031 284.683594 203.851562 284.675781 C 202.007812 284.539062 200.460938 283.230469 200.019531 281.433594 L 179.042969 195.773438 L 93.207031 175.351562 C 91.398438 174.921875 90.078125 173.375 89.9375 171.523438 C 89.796875 169.671875 90.871094 167.941406 92.589844 167.242188 L 175.695312 133.550781 C 177.878906 132.664062 180.367188 133.71875 181.253906 135.902344 C 182.136719 138.085938 181.085938 140.578125 178.902344 141.460938 L 108.175781 170.136719 L 183.554688 188.070312 C 185.113281 188.441406 186.332031 189.652344 186.710938 191.210938 L 205.179688 266.621094 L 271.53125 103.90625 L 225.976562 122.375 C 223.792969 123.261719 221.304688 122.207031 220.417969 120.023438 C 219.53125 117.839844 220.585938 115.347656 222.769531 114.460938 L 277.703125 92.191406 C 279.292969 91.546875 281.113281 91.917969 282.328125 93.132812 C 283.539062 94.347656 283.90625 96.167969 283.257812 97.757812 L 208.117188 282.027344 C 207.460938 283.644531 205.890625 284.6875 204.167969 284.6875 Z M 204.167969 284.6875 " fill-opacity="1" fill-rule="nonzero"/></svg>