<svg xmlns="http://www.w3.org/2000/svg" xmlns:xlink="http://www.w3.org/1999/xlink" width="500" zoomAndPan="magnify" viewBox="0 0 375 374.999991" height="500" preserveAspectRatio="xMidYMid meet" version="1.0"><defs><clipPath id="35dcd5082a"><path d="M 47 309 L 371.3125 309 L 371.3125 368 L 47 368 Z M 47 309 " clip-rule="nonzero"/></clipPath></defs><path fill="#323232" d="M 46.894531 8.914062 L 38.242188 9.953125 L 45.855469 11.335938 C 52.949219 12.550781 53.296875 12.894531 50.179688 15.316406 C 47.238281 17.566406 47.414062 17.742188 53.640625 16.703125 C 59.695312 15.664062 60.214844 15.835938 59.179688 18.953125 C 58.3125 21.894531 58.832031 22.242188 63.332031 21.546875 C 68.347656 20.855469 68.695312 21.027344 67.484375 25.355469 C 66.964844 27.953125 67.136719 29.855469 67.828125 29.683594 C 68.695312 29.507812 72.5 29.507812 76.308594 29.855469 C 81.496094 30.027344 82.363281 30.375 79.765625 31.414062 C 77 32.625 77.519531 33.144531 83.746094 35.222656 C 90.839844 37.644531 90.667969 37.644531 72.5 37.644531 C 55.199219 37.644531 53.121094 37.988281 45.683594 42.316406 C 38.242188 46.816406 3.8125 81.601562 5.367188 83.160156 C 5.714844 83.679688 9.867188 81.082031 14.539062 77.621094 C 24.226562 70.527344 25.265625 70.179688 25.265625 74.335938 C 25.265625 76.410156 26.824219 75.71875 30.457031 71.390625 C 35.300781 65.855469 35.648438 65.679688 34.609375 69.660156 C 33.742188 73.46875 34.4375 73.121094 41.183594 66.546875 C 47.929688 59.96875 49.140625 59.449219 51.21875 61.699219 C 53.121094 64.125 53.988281 63.605469 58.484375 57.894531 C 65.578125 49.066406 65.753906 49.066406 64.367188 54.949219 L 63.15625 60.144531 L 67.484375 54.949219 C 69.90625 52.007812 71.808594 49.238281 71.980469 48.375 C 71.980469 45.949219 75.441406 47.164062 75.441406 49.757812 C 75.441406 54.257812 79.59375 52.699219 86.6875 45.605469 C 93.261719 38.683594 93.261719 38.683594 99.144531 41.105469 C 102.433594 42.488281 108.144531 45.949219 111.777344 48.894531 L 118.351562 54.085938 L 119.390625 50.105469 C 120.429688 46.46875 120.601562 46.46875 125.792969 52.355469 C 130.289062 57.375 130.980469 57.71875 130.289062 54.429688 C 129.078125 48.71875 130.980469 49.933594 136.519531 57.71875 C 141.191406 64.46875 141.535156 64.640625 143.785156 61.699219 C 146.035156 58.585938 146.554688 58.757812 153.128906 65.335938 C 159.011719 70.871094 160.222656 71.566406 160.222656 68.796875 C 160.222656 66.027344 161.089844 66.375 164.894531 71.21875 C 168.703125 76.066406 169.738281 76.585938 170.605469 74.160156 C 171.46875 71.566406 172.679688 72.085938 179.949219 77.449219 C 184.445312 81.082031 188.425781 83.507812 188.773438 83.160156 C 190.328125 81.601562 161.78125 51.144531 152.957031 44.914062 C 143.613281 38.335938 142.054688 37.816406 128.734375 37.125 C 120.773438 36.777344 111.429688 37.125 107.796875 38.164062 C 104.335938 39.203125 101.394531 39.375 101.394531 38.507812 C 101.394531 37.816406 104.855469 36.257812 109.179688 35.046875 C 116.273438 33.144531 116.621094 32.625 114.027344 30.546875 C 111.257812 28.472656 112.121094 28.296875 120.253906 28.125 C 127.695312 28.125 129.253906 27.605469 127.695312 26.046875 C 124.234375 22.585938 125.273438 21.203125 130.980469 21.203125 C 135.136719 21.203125 136.171875 20.511719 135.308594 18.605469 C 134.617188 16.53125 135.828125 16.011719 140.84375 16.011719 C 146.554688 15.835938 146.898438 15.664062 143.785156 13.933594 C 140.671875 12.03125 141.015625 11.683594 148.113281 9.78125 C 155.722656 7.703125 155.550781 7.703125 139.632812 7.53125 C 113.160156 7.183594 105.375 11.335938 99.664062 28.125 L 96.722656 36.953125 L 95.511719 31.242188 C 93.78125 22.414062 86.6875 13.066406 80.285156 11.164062 C 72.328125 8.566406 57.101562 7.703125 46.894531 8.914062 Z M 130.808594 14.28125 C 130.808594 15.144531 129.769531 16.011719 128.558594 16.011719 C 127.175781 16.011719 124.753906 17.566406 123.023438 19.472656 C 121.292969 21.375 118.523438 22.933594 116.96875 22.933594 C 115.238281 22.933594 111.949219 25.011719 109.355469 27.605469 C 106.933594 30.027344 104.335938 31.585938 103.644531 31.066406 C 101.914062 29.164062 110.566406 17.914062 115.238281 16.183594 C 124.234375 12.722656 130.808594 11.855469 130.808594 14.28125 Z M 78.382812 16.355469 C 84.265625 18.953125 86.34375 20.855469 88.9375 25.875 C 92.570312 32.453125 91.1875 34.183594 86.167969 29.335938 C 83.574219 26.742188 79.941406 24.664062 78.382812 24.664062 C 76.652344 24.664062 73.019531 22.242188 69.90625 19.472656 L 64.542969 14.28125 L 69.039062 14.28125 C 71.460938 14.28125 75.789062 15.316406 78.382812 16.355469 Z M 70.25 44.566406 C 69.039062 45.949219 66.789062 47.164062 65.234375 47.164062 C 63.503906 47.164062 60.390625 49.066406 58.140625 51.488281 C 55.542969 54.257812 52.949219 55.46875 50.527344 54.949219 C 48.105469 54.257812 45.164062 55.644531 41.355469 59.277344 C 38.242188 62.21875 35.648438 63.777344 35.648438 62.566406 C 35.648438 61.355469 33.917969 61.699219 30.976562 63.605469 C 28.207031 65.160156 30.457031 62.21875 35.992188 57.027344 C 46.199219 46.988281 55.371094 42.835938 68.347656 42.144531 C 71.808594 41.96875 71.980469 42.316406 70.25 44.566406 Z M 82.363281 43.703125 C 84.4375 45.085938 84.265625 45.433594 81.152344 45.433594 C 78.902344 45.433594 77.171875 44.566406 77.171875 43.703125 C 77.171875 41.453125 79.074219 41.453125 82.363281 43.703125 Z M 117.832031 43.703125 C 118.351562 44.738281 117.140625 45.433594 114.890625 45.433594 C 111.777344 45.433594 111.429688 45.085938 113.507812 43.703125 C 116.792969 41.625 116.621094 41.625 117.832031 43.703125 Z M 146.554688 47.335938 C 150.015625 49.066406 155.550781 53.21875 159.011719 56.679688 C 165.585938 63.257812 167.144531 65.679688 163.335938 63.429688 C 162.125 62.566406 159.878906 61.875 158.320312 61.875 C 156.9375 61.699219 153.996094 59.96875 151.746094 57.71875 C 149.324219 55.296875 146.726562 54.257812 144.652344 54.949219 C 142.402344 55.644531 139.980469 54.605469 137.382812 51.835938 C 135.136719 49.585938 131.15625 47.164062 128.558594 46.46875 C 125.792969 45.777344 124.234375 44.566406 124.925781 43.527344 C 126.3125 41.105469 138.59375 43.183594 146.554688 47.335938 Z M 146.554688 47.335938 " fill-opacity="1" fill-rule="nonzero"/><path fill="#323232" d="M 80.113281 54.949219 C 64.542969 70.355469 58.484375 93.371094 64.714844 113.792969 C 65.578125 116.910156 65.753906 116.910156 66.964844 112.929688 C 67.65625 110.503906 68.175781 105.660156 68.347656 101.851562 C 68.519531 96.140625 68.867188 95.449219 71.117188 97.351562 C 73.367188 99.257812 73.710938 98.5625 73.710938 92.332031 C 73.710938 84.546875 74.058594 84.371094 79.074219 87.140625 C 82.535156 88.871094 82.535156 88.527344 81.324219 80.566406 C 80.285156 73.296875 80.460938 72.605469 82.707031 74.507812 C 84.957031 76.238281 85.648438 76.066406 86.515625 72.777344 C 87.035156 70.527344 87.554688 66.890625 87.554688 64.46875 C 87.554688 61.179688 88.074219 60.835938 89.628906 62.390625 C 92.398438 65.160156 94.472656 64.988281 94.472656 62.046875 C 94.472656 60.660156 94.992188 59.105469 95.859375 58.757812 C 96.550781 58.238281 97.242188 70.527344 97.414062 86.101562 C 97.933594 146.851562 104.511719 181.808594 122.332031 220.058594 C 125.964844 228.019531 129.078125 237.019531 129.078125 240.132812 C 129.078125 245.5 128.558594 245.84375 117.488281 249.652344 C 101.914062 254.84375 87.207031 262.285156 74.578125 271.285156 C 62.984375 279.59375 48.277344 293.957031 49.835938 295.6875 C 53.121094 298.804688 85.996094 311.4375 103.125 315.9375 C 122.332031 321.128906 124.40625 321.300781 159.359375 321.300781 C 192.578125 321.300781 197.421875 320.957031 216.457031 316.804688 C 268.707031 305.035156 271.824219 304.515625 289.988281 304.515625 C 309.886719 304.515625 324.59375 308.148438 337.398438 316.628906 L 344.144531 320.957031 L 340.6875 316.109375 C 335.320312 308.667969 316.636719 291.1875 304.351562 282.1875 C 284.453125 267.652344 254.867188 254.324219 228.222656 247.921875 C 220.261719 246.191406 219.050781 245.324219 219.050781 241.691406 C 219.050781 239.269531 220.953125 233.730469 223.203125 229.230469 C 229.433594 216.769531 236.351562 196.519531 238.949219 182.847656 C 242.0625 167.097656 245.695312 118.640625 244.65625 106.699219 C 244.140625 101.679688 244.484375 97.871094 245.351562 98.390625 C 246.042969 98.910156 246.734375 100.46875 246.734375 102.023438 C 246.734375 104.273438 247.253906 104.273438 249.328125 102.542969 C 251.578125 100.640625 251.925781 101.332031 251.925781 106.871094 C 251.925781 112.0625 252.445312 113.101562 254.695312 112.234375 C 257.117188 111.371094 257.460938 112.0625 256.597656 117.429688 C 255.730469 122.273438 256.078125 123.3125 257.460938 121.929688 C 260.75 118.640625 262.304688 119.503906 262.304688 125.042969 C 262.304688 128.851562 263 129.890625 264.902344 129.195312 C 266.976562 128.332031 267.496094 129.890625 267.496094 137.332031 C 267.671875 145.121094 267.84375 146.15625 269.574219 143.214844 C 270.613281 141.484375 271.476562 134.90625 271.304688 128.851562 C 271.128906 115.351562 264.902344 101.160156 256.078125 94.582031 C 252.789062 91.988281 250.539062 89.5625 251.058594 89.046875 C 251.578125 88.527344 253.480469 89.5625 255.558594 91.296875 C 258.5 94.238281 259.363281 94.238281 260.75 92.160156 C 262.132812 90.082031 263.171875 90.429688 266.804688 94.757812 C 271.128906 99.773438 271.128906 99.773438 270.09375 95.621094 C 269.054688 91.46875 269.054688 91.46875 273.378906 96.488281 C 275.800781 99.257812 277.878906 102.371094 277.878906 103.410156 C 277.878906 104.273438 278.742188 103.757812 279.78125 102.023438 C 281.511719 98.910156 282.03125 99.082031 287.566406 104.449219 C 292.585938 109.292969 293.449219 109.640625 293.449219 106.699219 C 293.449219 103.929688 293.96875 104.273438 296.566406 108.082031 C 299.679688 113.449219 302.621094 114.660156 300.890625 109.988281 C 300.023438 107.738281 301.0625 108.082031 305.390625 111.371094 C 317.5 120.371094 318.367188 120.371094 311.445312 112.0625 C 299.679688 97.871094 286.011719 85.929688 278.917969 83.507812 C 274.417969 82.121094 267.84375 81.601562 259.882812 82.296875 C 251.925781 82.988281 248.464844 82.816406 250.195312 81.777344 C 251.578125 80.910156 254.347656 80.046875 256.078125 80.046875 C 259.191406 80.046875 259.191406 79.871094 255.558594 76.066406 C 251.40625 71.390625 252.445312 69.660156 261.09375 66.375 C 267.496094 63.949219 266.976562 67.066406 260.578125 70.007812 C 257.808594 71.21875 255.386719 72.777344 255.386719 73.296875 C 255.386719 75.371094 259.710938 76.238281 264.554688 75.371094 C 268.363281 74.679688 268.882812 73.988281 267.324219 72.085938 C 265.765625 70.179688 266.285156 69.660156 269.917969 69.660156 C 272.6875 69.660156 274.246094 68.96875 273.554688 67.929688 C 272.859375 66.890625 274.765625 66.199219 278.222656 66.199219 C 282.378906 66.199219 283.242188 65.679688 281.511719 64.640625 C 279.609375 63.429688 280.300781 62.566406 284.972656 61.179688 C 289.816406 59.625 287.914062 59.449219 273.898438 59.796875 C 258.5 60.316406 256.597656 60.660156 252.617188 64.640625 C 250.195312 67.066406 247.253906 72.085938 245.871094 75.890625 C 244.484375 79.527344 243.445312 81.257812 243.273438 79.527344 C 243.273438 73.46875 237.5625 64.296875 232.546875 61.699219 C 226.144531 58.410156 197.078125 55.988281 198.980469 58.929688 C 199.671875 60.144531 202.613281 61.007812 205.726562 61.007812 C 210.574219 61.007812 210.746094 61.179688 207.804688 63.257812 C 205.035156 65.507812 205.207031 65.679688 210.226562 64.816406 C 214.726562 64.296875 215.417969 64.640625 214.550781 66.890625 C 213.6875 68.96875 214.550781 69.660156 218.1875 69.660156 C 222.164062 69.660156 222.683594 70.007812 220.78125 72.257812 C 218.878906 74.507812 219.742188 74.851562 226.144531 74.851562 C 231.335938 74.851562 233.066406 75.371094 231.335938 76.410156 C 229.433594 77.621094 230.125 78.660156 234.796875 80.566406 C 240.332031 82.816406 239.988281 82.988281 226.664062 82.121094 C 215.417969 81.601562 211.265625 81.949219 205.902344 84.546875 C 199.152344 87.832031 180.984375 104.96875 173.890625 114.832031 L 170.085938 120.199219 L 177.523438 114.832031 C 182.542969 111.199219 185.484375 109.988281 186.175781 111.371094 C 187.042969 112.582031 188.773438 111.542969 191.195312 108.429688 C 194.136719 104.621094 194.828125 104.449219 194.828125 107.042969 C 194.828125 109.640625 195.867188 109.121094 200.710938 104.449219 C 205.554688 99.601562 206.59375 99.257812 207.632812 101.851562 C 208.496094 104.273438 209.363281 103.929688 212.476562 99.773438 C 218.53125 91.640625 219.570312 90.949219 218.1875 95.621094 C 217.148438 99.601562 217.320312 99.429688 221.128906 94.410156 C 224.585938 89.910156 225.625 89.390625 227.011719 91.46875 C 228.394531 93.542969 229.605469 93.371094 234.96875 89.5625 C 238.429688 87.140625 243.273438 85.238281 245.523438 85.238281 C 248.984375 85.238281 249.675781 86.101562 249.847656 91.121094 C 250.023438 95.96875 249.503906 96.832031 246.90625 96.140625 C 245.175781 95.621094 243.101562 96.140625 242.582031 97.179688 C 241.890625 98.21875 239.988281 99.082031 238.429688 99.082031 C 236.699219 99.082031 234.277344 100.640625 232.890625 102.71875 C 227.183594 110.679688 226.144531 112.0625 225.972656 110.332031 C 225.972656 109.292969 228.738281 105.140625 232.027344 100.988281 C 238.601562 92.679688 239.8125 89.390625 235.140625 91.988281 C 224.585938 97.527344 216.800781 114.140625 216.628906 130.582031 C 216.457031 137.675781 217.320312 143.042969 218.703125 144.253906 C 220.433594 145.984375 220.78125 144.773438 220.78125 137.503906 C 220.78125 130.234375 221.300781 128.851562 223.375 129.542969 C 225.28125 130.410156 225.972656 129.371094 225.972656 125.214844 C 225.972656 120.542969 226.316406 120.023438 229.085938 121.410156 C 231.855469 122.792969 232.027344 122.449219 231.507812 116.910156 C 230.988281 112.582031 231.335938 111.023438 232.71875 111.890625 C 233.929688 112.753906 234.621094 111.542969 234.621094 108.601562 C 234.621094 105.140625 235.316406 104.101562 237.21875 104.96875 C 238.949219 105.488281 239.8125 104.792969 239.8125 103.0625 C 239.8125 101.507812 240.160156 100.640625 240.679688 101.160156 C 242.410156 102.71875 236.179688 161.042969 232.890625 175.234375 C 228.738281 192.367188 208.667969 234.078125 202.265625 239.269531 C 198.460938 242.210938 195.867188 242.382812 177.871094 241.691406 C 155.378906 240.824219 152.78125 239.789062 144.476562 228.363281 C 137.039062 218.152344 119.5625 182.15625 114.546875 166.058594 C 109.355469 150.3125 105.722656 126.601562 103.125 93.027344 C 102.085938 79.699219 100.875 66.890625 100.355469 64.816406 C 99.839844 62.21875 100.183594 61.179688 101.394531 61.875 C 102.261719 62.390625 103.125 64.125 103.125 65.679688 C 103.125 67.929688 103.644531 67.929688 105.722656 66.199219 C 107.96875 64.296875 108.316406 64.988281 108.316406 70.355469 C 108.316406 75.890625 108.664062 76.585938 111.429688 75.027344 C 114.371094 73.46875 114.546875 73.988281 113.507812 81.082031 C 112.46875 88.179688 113.679688 90.949219 116.101562 86.96875 C 118.523438 83.160156 120.429688 85.582031 120.429688 92.507812 C 120.429688 98.21875 120.945312 99.257812 122.503906 97.699219 C 126.3125 93.890625 127.175781 95.449219 127.695312 106.351562 C 128.214844 117.082031 128.214844 117.082031 130.636719 112.0625 C 133.921875 104.621094 132.195312 82.988281 127.523438 72.777344 C 123.371094 63.949219 113.332031 51.488281 108.144531 48.894531 C 103.992188 46.644531 103.816406 48.894531 107.96875 53.394531 C 115.757812 62.21875 121.8125 71.046875 123.542969 76.410156 C 126.484375 84.71875 126.136719 86.277344 122.15625 82.640625 C 120.253906 80.910156 118.699219 78.660156 118.699219 77.796875 C 118.699219 74.851562 109.355469 61.007812 107.277344 61.007812 C 106.238281 61.007812 103.296875 59.449219 100.703125 57.375 C 97.242188 54.605469 95.511719 54.257812 93.78125 55.644531 C 92.398438 56.855469 90.320312 57.375 89.109375 57.199219 C 87.207031 56.679688 81.152344 66.027344 75.613281 77.796875 C 73.710938 81.777344 70.597656 84.371094 69.039062 82.988281 C 67.65625 81.429688 76.824219 65.855469 84.265625 56.679688 C 87.898438 52.179688 91.015625 48.199219 91.015625 47.855469 C 91.015625 45.605469 87.207031 48.199219 80.113281 54.949219 Z M 233.410156 69.316406 C 234.96875 70.699219 236.351562 72.777344 236.351562 73.640625 C 236.351562 74.679688 234.96875 74.160156 233.238281 72.605469 C 231.507812 70.871094 229.257812 69.660156 228.222656 69.660156 C 227.183594 69.660156 225.28125 68.449219 224.070312 66.890625 C 221.992188 64.296875 222.164062 64.125 225.972656 65.335938 C 228.394531 66.027344 231.679688 67.757812 233.410156 69.316406 Z M 219.050781 88.179688 C 217.667969 88.699219 214.726562 90.601562 212.648438 92.507812 C 210.574219 94.410156 207.976562 95.449219 206.9375 94.757812 C 205.902344 94.0625 203.132812 95.277344 200.710938 97.527344 C 198.460938 99.601562 196.039062 100.8125 195.519531 100.292969 C 193.789062 98.5625 203.132812 91.640625 210.226562 89.21875 C 216.628906 87.140625 224.414062 86.277344 219.050781 88.179688 Z M 287.914062 94.757812 C 294.488281 100.988281 293.449219 103.410156 286.703125 97.527344 C 284.453125 95.621094 281.859375 94.410156 280.648438 94.929688 C 279.4375 95.449219 277.011719 94.238281 275.28125 92.160156 C 272.167969 88.699219 272.167969 88.699219 276.839844 88.699219 C 279.609375 88.699219 283.761719 90.949219 287.914062 94.757812 Z M 263.515625 115.871094 C 263 116.21875 262.132812 115.003906 261.441406 113.101562 C 260.921875 111.023438 259.539062 109.46875 258.671875 109.46875 C 257.636719 109.46875 257.460938 108.601562 258.152344 107.5625 C 258.847656 106.179688 260.230469 107.21875 261.789062 110.160156 C 263.171875 112.753906 263.863281 115.351562 263.515625 115.871094 Z M 127.347656 206.90625 C 127.347656 207.769531 128.90625 210.710938 130.980469 213.480469 C 132.886719 216.25 133.921875 218.5 133.058594 218.5 C 132.367188 218.5 133.058594 219.367188 134.789062 220.402344 C 136.347656 221.269531 137.730469 223 137.730469 224.210938 C 137.730469 227.152344 149.148438 241.171875 150.535156 239.789062 C 151.054688 239.269531 151.570312 239.789062 151.570312 241.171875 C 151.570312 242.558594 152.957031 243.769531 154.6875 243.941406 C 156.242188 243.941406 167.144531 244.460938 178.5625 245.152344 L 199.671875 246.191406 L 207.632812 238.402344 C 211.957031 234.078125 215.417969 229.921875 215.246094 229.230469 C 214.898438 228.539062 216.972656 224.902344 219.570312 221.097656 C 222.164062 217.289062 224.242188 215.386719 224.242188 216.769531 C 224.242188 218.152344 223.03125 220.921875 221.644531 222.652344 C 220.261719 224.382812 219.570312 226.632812 220.089844 227.328125 C 220.609375 228.191406 220.089844 228.882812 219.050781 228.882812 C 218.011719 228.882812 217.492188 229.578125 218.1875 230.441406 C 218.703125 231.480469 218.011719 233.039062 216.800781 234.25 C 210.574219 240.132812 219.398438 252.074219 231.335938 253.804688 C 240.679688 255.191406 252.617188 258.652344 255.386719 260.902344 C 256.769531 262.113281 263.863281 265.574219 270.957031 268.863281 C 278.050781 271.976562 284.28125 275.09375 284.800781 275.613281 C 285.320312 276.132812 290.855469 279.9375 297.257812 283.921875 C 312.65625 293.957031 325.632812 306.246094 316.460938 302.4375 C 314.730469 301.746094 311.445312 300.707031 309.023438 300.363281 C 286.355469 297.074219 273.898438 298.113281 235.832031 306.9375 C 223.722656 309.707031 211.265625 312.304688 208.148438 312.824219 C 205.035156 313.339844 198.460938 314.554688 193.269531 315.417969 C 173.546875 319.054688 126.828125 316.628906 104.855469 311.089844 C 102.433594 310.398438 99.144531 309.707031 97.589844 309.535156 C 95.859375 309.359375 93.957031 308.667969 93.4375 307.976562 C 92.746094 307.285156 90.839844 306.765625 89.285156 306.765625 C 87.726562 306.765625 82.535156 304.859375 77.691406 302.4375 C 72.847656 300.1875 66.789062 297.765625 64.367188 297.074219 C 61.945312 296.554688 59.351562 295.34375 58.832031 294.476562 C 57.621094 292.574219 65.234375 282.707031 68.003906 282.707031 C 69.039062 282.535156 70.25 281.84375 70.597656 281.152344 C 70.945312 280.285156 76.132812 276.304688 82.363281 272.152344 C 88.589844 267.996094 93.957031 264.015625 94.128906 263.152344 C 94.472656 262.460938 96.03125 261.765625 97.589844 261.765625 C 99.320312 261.765625 102.085938 260.554688 103.816406 259.171875 C 105.546875 257.785156 107.625 257.09375 108.488281 257.441406 C 109.179688 257.960938 110.21875 257.613281 110.910156 256.574219 C 111.429688 255.710938 113.851562 254.84375 116.273438 254.84375 C 118.523438 254.84375 120.429688 254.152344 120.429688 253.113281 C 120.429688 252.25 121.640625 251.902344 123.023438 252.421875 C 124.40625 253.113281 125.617188 252.59375 125.617188 251.554688 C 125.617188 250.519531 126.828125 249.652344 128.214844 249.652344 C 131.5 249.652344 133.230469 242.558594 131.847656 235.289062 C 131.15625 232.34375 130.636719 228.363281 130.636719 226.632812 C 130.636719 225.078125 129.945312 224.039062 128.90625 224.558594 C 128.039062 225.25 127.347656 224.039062 127.347656 222.132812 C 127.347656 220.058594 126.484375 218.5 125.273438 218.5 C 124.234375 218.5 123.886719 217.980469 124.40625 217.460938 C 124.925781 216.769531 124.582031 214.691406 123.542969 212.617188 C 122.332031 210.710938 121.292969 208.636719 121.121094 208.117188 C 121.121094 207.597656 119.734375 204.308594 118.179688 200.847656 C 116.449219 197.210938 115.238281 191.5 115.238281 188.039062 C 115.238281 181.808594 115.410156 181.984375 121.292969 193.578125 C 124.582031 200.15625 127.347656 206.210938 127.347656 206.90625 Z M 229.605469 199.980469 C 227.875 201.539062 227.703125 201.367188 228.738281 198.945312 C 229.257812 197.210938 230.296875 196.347656 230.816406 196.867188 C 231.335938 197.386719 230.816406 198.769531 229.605469 199.980469 Z M 229.605469 199.980469 " fill-opacity="1" fill-rule="nonzero"/><path fill="#323232" d="M 152.089844 167.445312 C 137.558594 171.425781 121.464844 180.425781 124.234375 183.019531 C 124.582031 183.539062 131.5 180.425781 139.632812 176.445312 L 154.167969 169.175781 L 175.796875 169.347656 L 197.421875 169.347656 L 211.089844 176.617188 C 225.625 184.40625 229.433594 185.617188 225.796875 181.117188 C 222.683594 177.484375 209.707031 171.078125 198.460938 167.617188 C 186.867188 164.15625 164.546875 164.15625 152.089844 167.445312 Z M 152.089844 167.445312 " fill-opacity="1" fill-rule="nonzero"/><path fill="#323232" d="M 103.472656 202.058594 C 95.167969 214.691406 90.839844 228.019531 89.804688 243.941406 C 88.589844 262.285156 91.878906 263.324219 93.261719 245.324219 C 93.957031 238.230469 95.511719 229.578125 96.898438 226.289062 C 98.28125 223 99.144531 220.230469 98.800781 220.230469 C 98.28125 220.230469 100.703125 215.039062 104.164062 208.808594 C 111.605469 195.136719 111.085938 190.464844 103.472656 202.058594 Z M 103.472656 202.058594 " fill-opacity="1" fill-rule="nonzero"/><path fill="#323232" d="M 243.101562 203.269531 C 250.714844 216.769531 255.039062 230.097656 256.078125 242.558594 C 257.636719 259.863281 261.269531 260.730469 260.058594 243.59375 C 259.019531 228.363281 254.695312 215.039062 246.734375 202.40625 C 239.8125 191.328125 236.871094 192.019531 243.101562 203.269531 Z M 243.101562 203.269531 " fill-opacity="1" fill-rule="nonzero"/><g clip-path="url(#35dcd5082a)"><path fill="#323232" d="M 47.757812 309.359375 C 47.757812 310.054688 52.082031 316.285156 57.449219 323.207031 C 68.867188 338.609375 82.363281 349.859375 98.800781 357.820312 C 115.0625 365.609375 128.734375 368.03125 150.359375 366.820312 C 170.085938 365.78125 182.714844 362.320312 219.222656 348.648438 C 232.199219 343.628906 249.328125 338.089844 257.289062 336.1875 C 277.707031 331.167969 307.984375 329.957031 324.421875 333.417969 C 338.261719 336.359375 356.605469 344.148438 365.601562 351.070312 C 368.714844 353.492188 371.3125 354.703125 371.3125 354.011719 C 371.136719 351.761719 350.722656 337.050781 338.4375 330.476562 C 320.789062 320.957031 305.5625 316.976562 286.355469 316.976562 C 277.359375 316.976562 268.015625 317.320312 265.59375 317.839844 C 263.34375 318.359375 248.636719 321.820312 232.890625 325.628906 C 177.871094 338.957031 137.382812 340.6875 99.839844 330.996094 C 83.921875 327.015625 60.90625 317.667969 53.121094 312.128906 C 50.179688 310.054688 47.757812 308.84375 47.757812 309.359375 Z M 310.578125 323.378906 C 315.769531 324.765625 320.269531 326.148438 320.613281 326.496094 C 321.132812 327.015625 313.867188 327.359375 304.351562 327.1875 C 271.648438 327.1875 254.695312 331.167969 200.539062 351.589844 C 192.578125 354.53125 186.175781 356.261719 186.175781 355.570312 C 186.175781 354.878906 185.484375 355.398438 184.792969 356.609375 C 182.890625 359.378906 153.820312 364.398438 140.324219 364.222656 C 126.3125 364.050781 104.335938 358.167969 92.917969 351.242188 C 82.882812 345.1875 56.753906 320.609375 60.5625 320.609375 C 60.90625 320.609375 66.789062 322.859375 73.367188 325.800781 C 99.320312 336.878906 123.023438 340.859375 159.359375 340.167969 C 173.71875 339.992188 189.289062 338.957031 193.960938 337.917969 C 198.808594 336.878906 205.207031 335.667969 208.324219 335.148438 C 211.4375 334.800781 218.53125 333.070312 223.894531 331.6875 C 229.257812 330.300781 234.96875 328.746094 236.351562 328.398438 C 237.738281 328.050781 243.621094 326.667969 249.15625 325.109375 C 254.867188 323.550781 264.210938 321.820312 269.917969 321.300781 C 275.800781 320.609375 280.648438 320.089844 280.820312 319.746094 C 282.03125 318.878906 302.273438 321.300781 310.578125 323.378906 Z M 329.265625 330.300781 C 328.054688 331.515625 322.863281 329.089844 322.863281 327.359375 C 322.863281 326.320312 324.421875 326.496094 326.496094 327.53125 C 328.402344 328.746094 329.785156 329.957031 329.265625 330.300781 Z M 329.265625 330.300781 " fill-opacity="1" fill-rule="nonzero"/></g><path fill="#323232" d="M 271.824219 345.53125 C 263.34375 347.78125 251.234375 352.109375 245.003906 355.050781 C 238.773438 357.992188 235.140625 360.070312 236.699219 359.722656 C 257.460938 354.011719 330.996094 352.453125 345.875 357.300781 C 358.160156 361.453125 355.566406 358.167969 341.550781 351.761719 C 316.808594 340.859375 297.082031 338.957031 271.824219 345.53125 Z M 321.480469 348.128906 C 324.25 349.167969 319.402344 349.6875 305.5625 349.859375 C 294.660156 350.03125 281.339844 350.550781 276.148438 351.070312 C 264.554688 352.109375 265.941406 350.378906 279.089844 347.261719 C 289.644531 344.839844 314.214844 345.359375 321.480469 348.128906 Z M 321.480469 348.128906 " fill-opacity="1" fill-rule="nonzero"/></svg>