<svg xmlns="http://www.w3.org/2000/svg" xmlns:xlink="http://www.w3.org/1999/xlink" width="500" zoomAndPan="magnify" viewBox="0 0 375 374.999991" height="500" preserveAspectRatio="xMidYMid meet" version="1.0"><defs><clipPath id="da0dfff1d8"><path d="M 187.5 0 C 83.945312 0 0 83.945312 0 187.5 C 0 291.054688 83.945312 375 187.5 375 C 291.054688 375 375 291.054688 375 187.5 C 375 83.945312 291.054688 0 187.5 0 " clip-rule="nonzero"/></clipPath><clipPath id="507e1387f7"><path d="M 45 132 L 327 132 L 327 330.671875 L 45 330.671875 Z M 45 132 " clip-rule="nonzero"/></clipPath></defs><g clip-path="url(#da0dfff1d8)"><rect x="-37.5" width="450" fill="#cde5e9" y="-37.499999" height="449.999989" fill-opacity="1"/></g><path fill="#80a8af" d="M 50.996094 183.382812 C 50.644531 183.382812 50.339844 183.113281 50.300781 182.757812 C 47.222656 154.589844 56.546875 125.324219 76.554688 100.351562 C 94 78.578125 118.09375 61.945312 141 55.859375 C 184.585938 44.277344 211.722656 54.21875 211.992188 54.320312 C 212.355469 54.457031 212.539062 54.863281 212.398438 55.226562 C 212.261719 55.585938 211.859375 55.769531 211.496094 55.632812 C 211.230469 55.535156 184.476562 45.757812 141.363281 57.214844 C 100.304688 68.125 44.75 119.054688 51.695312 182.601562 C 51.738281 182.988281 51.460938 183.335938 51.074219 183.375 C 51.046875 183.378906 51.023438 183.382812 50.996094 183.382812 " fill-opacity="1" fill-rule="nonzero"/><path fill="#80a8af" d="M 220.410156 58.21875 C 222.28125 59.238281 224.109375 60.296875 225.914062 61.339844 C 227.457031 62.230469 228.996094 63.121094 230.546875 63.980469 C 233.539062 65.640625 234.632812 65.496094 234.761719 65.367188 C 234.964844 65.015625 233.9375 62.917969 230.828125 60.871094 C 227.886719 58.933594 224.277344 58.222656 220.410156 58.21875 Z M 182.894531 54.78125 C 179.695312 54.78125 177.945312 56.625 175.703125 58.980469 C 174.726562 60.011719 173.617188 61.175781 172.285156 62.277344 C 171.386719 63.027344 170.222656 63.597656 169.101562 64.148438 C 166.339844 65.503906 164.699219 66.484375 165.171875 68.667969 C 165.488281 70.113281 166.164062 71.0625 167.242188 71.5625 C 171.410156 73.507812 180.566406 68.695312 187.257812 65.183594 C 189.40625 64.054688 191.273438 63.070312 192.761719 62.414062 C 192.828125 61.402344 192.644531 60.457031 192.214844 59.585938 C 191.242188 57.609375 189.003906 56.0625 185.90625 55.226562 C 184.765625 54.921875 183.777344 54.78125 182.894531 54.78125 Z M 167.855469 104.273438 C 167.550781 106.90625 168.582031 110.089844 170.335938 111.824219 C 171.316406 112.789062 173.023438 113.667969 174.175781 113.460938 C 174.707031 113.367188 175.09375 113.046875 175.359375 112.484375 C 176.394531 110.292969 171.703125 105.835938 169.363281 104.460938 C 169.089844 104.300781 168.816406 104.148438 168.542969 104 C 168.316406 104.082031 168.085938 104.175781 167.855469 104.273438 Z M 238.839844 240.007812 C 238.875 240.113281 238.910156 240.226562 238.941406 240.332031 C 239.9375 243.476562 240.964844 246.730469 240.089844 250.363281 C 239.816406 251.496094 238.910156 252.929688 237.855469 254.585938 C 236.175781 257.238281 234.082031 260.542969 235.234375 262.152344 C 235.347656 262.316406 235.527344 262.480469 235.976562 262.449219 C 239.136719 262.25 246.363281 254.171875 247.285156 252.457031 C 248.726562 249.773438 249.621094 245.164062 248.433594 241.90625 C 247.839844 240.273438 246.789062 239.148438 245.3125 238.558594 C 243.027344 237.644531 240.859375 238.382812 238.839844 240.007812 Z M 181.011719 298.53125 C 178.1875 298.53125 175.472656 297.910156 173.054688 296.394531 C 168.398438 293.476562 168.359375 288.542969 168.324219 283.769531 C 168.3125 282.265625 168.300781 280.714844 168.15625 279.207031 C 167.542969 272.929688 166.242188 270.125 162.640625 264.894531 C 157.769531 257.816406 157.402344 251.101562 161.449219 243.121094 C 165.25 235.613281 165.214844 222.089844 161.359375 211.671875 C 159.550781 206.789062 156.132812 200.441406 150.109375 197.941406 C 141.917969 194.546875 134.675781 195.980469 126.289062 197.640625 L 124.546875 197.984375 C 112.152344 200.402344 106.824219 200.191406 100.03125 188.265625 C 99.386719 187.132812 98.734375 186.042969 98.101562 184.980469 C 94.273438 178.582031 90.96875 173.050781 92.535156 164.136719 C 95.910156 144.902344 110.03125 131.820312 118.148438 125.738281 C 130.449219 116.519531 138.253906 113.046875 156.644531 121 C 159.023438 122.027344 161.476562 123.179688 163.84375 124.292969 C 168.964844 126.699219 174.261719 129.183594 179.472656 130.761719 C 188.304688 133.4375 201.457031 135.078125 209.480469 130.898438 C 212.257812 129.453125 213.882812 127.609375 214.304688 125.414062 C 214.78125 122.945312 213.722656 120.117188 211.242188 117.230469 C 207.328125 112.675781 204.75 112.804688 200.472656 113.019531 C 199.253906 113.082031 197.867188 113.152344 196.308594 113.113281 C 191.382812 112.992188 187.449219 110.398438 183.644531 107.886719 C 179.4375 105.109375 175.429688 102.46875 170.417969 103.464844 C 172.65625 104.929688 178.21875 109.710938 176.628906 113.082031 C 176.167969 114.058594 175.40625 114.667969 174.421875 114.84375 C 172.660156 115.152344 170.558594 114.011719 169.351562 112.820312 C 167.183594 110.679688 165.996094 106.832031 166.523438 103.671875 C 166.558594 103.46875 166.683594 103.289062 166.859375 103.183594 C 163.140625 101.558594 159.230469 101.015625 155.8125 101.699219 C 151.238281 102.613281 148.683594 105.367188 145.980469 108.28125 C 143.855469 110.578125 141.65625 112.945312 138.417969 114.347656 L 137.960938 114.546875 C 134.191406 116.1875 127.171875 119.238281 124.222656 114.394531 C 123.070312 112.496094 122.867188 109.574219 123.699219 106.761719 C 124.492188 104.089844 126.03125 102.035156 127.921875 101.128906 C 129.414062 100.414062 130.851562 100.636719 132.121094 100.835938 C 133.542969 101.058594 134.765625 101.25 136.078125 100.320312 C 137.796875 99.101562 137.902344 97.914062 138.0625 96.113281 C 138.101562 95.648438 138.144531 95.164062 138.21875 94.652344 C 138.644531 91.660156 139.96875 88.277344 141.585938 86.039062 C 144.546875 81.9375 151.351562 79.464844 155.003906 78.136719 C 158.941406 76.703125 163.101562 76.0625 167.125 75.449219 C 169.691406 75.054688 172.339844 74.644531 174.882812 74.039062 L 175.746094 73.835938 C 181.363281 72.507812 189.855469 70.5 192.117188 65.035156 C 192.246094 64.71875 192.359375 64.40625 192.449219 64.101562 C 191.144531 64.722656 189.585938 65.542969 187.910156 66.425781 C 180.574219 70.277344 171.445312 75.074219 166.648438 72.835938 C 165.164062 72.144531 164.207031 70.839844 163.800781 68.964844 C 163.0625 65.550781 165.941406 64.136719 168.484375 62.886719 C 169.53125 62.371094 170.617188 61.839844 171.390625 61.199219 C 172.65625 60.148438 173.6875 59.066406 174.6875 58.015625 C 177.636719 54.910156 180.183594 52.230469 186.273438 53.875 C 189.761719 54.816406 192.320312 56.625 193.476562 58.96875 C 193.921875 59.871094 194.15625 60.835938 194.179688 61.851562 C 194.484375 61.75 194.765625 61.667969 195.015625 61.617188 C 197.058594 61.203125 199.332031 60.625 201.738281 60.007812 C 205.972656 58.929688 210.65625 57.730469 215.257812 57.15625 C 214.199219 56.65625 213.125 56.179688 212.035156 55.742188 C 211.679688 55.597656 211.503906 55.1875 211.648438 54.828125 C 211.792969 54.472656 212.199219 54.296875 212.5625 54.441406 C 214.386719 55.175781 216.167969 56.011719 217.914062 56.898438 C 222.945312 56.5625 227.75 57.164062 231.601562 59.699219 C 234.957031 61.90625 236.832031 64.65625 235.957031 66.09375 C 235.210938 67.332031 233.160156 67.035156 229.867188 65.210938 C 228.304688 64.34375 226.761719 63.449219 225.210938 62.554688 C 222.738281 61.125 220.21875 59.664062 217.625 58.328125 C 212.429688 58.726562 206.953125 60.125 202.085938 61.367188 C 199.660156 61.988281 197.371094 62.570312 195.296875 62.992188 C 194.960938 63.0625 194.542969 63.199219 194.0625 63.390625 C 193.9375 64.097656 193.722656 64.824219 193.414062 65.570312 C 190.875 71.703125 181.964844 73.808594 176.066406 75.199219 L 175.210938 75.402344 C 172.609375 76.023438 169.929688 76.4375 167.339844 76.832031 C 163.382812 77.441406 159.289062 78.070312 155.484375 79.453125 C 151.972656 80.730469 145.433594 83.109375 142.722656 86.859375 C 141.25 88.898438 140 92.109375 139.609375 94.851562 C 139.539062 95.335938 139.496094 95.796875 139.457031 96.234375 C 139.292969 98.105469 139.136719 99.871094 136.886719 101.464844 C 135.113281 102.722656 133.410156 102.457031 131.90625 102.222656 C 130.734375 102.039062 129.628906 101.867188 128.527344 102.394531 C 127.015625 103.121094 125.714844 104.902344 125.046875 107.160156 C 124.324219 109.601562 124.46875 112.097656 125.421875 113.667969 C 127.734375 117.464844 133.785156 114.832031 137.402344 113.261719 L 137.859375 113.0625 C 140.832031 111.777344 142.832031 109.617188 144.953125 107.328125 C 147.6875 104.378906 150.515625 101.324219 155.539062 100.324219 C 159.617188 99.507812 164.320312 100.292969 168.652344 102.476562 C 174.933594 100.457031 179.75 103.632812 184.414062 106.714844 C 188.054688 109.117188 191.820312 111.601562 196.34375 111.710938 C 197.847656 111.746094 199.207031 111.679688 200.40625 111.617188 C 204.785156 111.402344 207.945312 111.242188 212.308594 116.316406 C 215.074219 119.539062 216.242188 122.777344 215.683594 125.679688 C 215.171875 128.316406 213.304688 130.488281 210.128906 132.140625 C 201.742188 136.511719 188.582031 134.988281 179.066406 132.105469 C 173.757812 130.496094 168.414062 127.988281 163.246094 125.5625 C 160.886719 124.453125 158.449219 123.308594 156.085938 122.289062 C 138.289062 114.589844 131.117188 117.769531 118.992188 126.859375 C 111.039062 132.820312 97.210938 145.621094 93.917969 164.378906 C 92.441406 172.78125 95.621094 178.101562 99.304688 184.261719 C 99.945312 185.332031 100.601562 186.429688 101.253906 187.574219 C 107.371094 198.3125 111.421875 199.117188 124.277344 196.609375 L 126.019531 196.265625 C 134.628906 194.558594 142.0625 193.089844 150.644531 196.648438 C 157.136719 199.339844 160.769531 206.039062 162.675781 211.183594 C 166.71875 222.105469 166.726562 235.804688 162.699219 243.753906 C 158.863281 251.324219 159.191406 257.40625 163.796875 264.097656 C 167.554688 269.554688 168.910156 272.484375 169.550781 279.074219 C 169.707031 280.640625 169.71875 282.226562 169.726562 283.757812 C 169.761719 288.554688 169.796875 292.699219 173.800781 295.207031 C 182.476562 300.644531 195.691406 293.375 202.792969 288.554688 C 210.683594 283.203125 215.246094 277.867188 218.535156 270.128906 C 219.011719 269.011719 219.429688 267.96875 219.828125 266.96875 C 221.355469 263.160156 222.671875 259.871094 225.851562 256.027344 C 226.785156 254.894531 227.894531 253 229.175781 250.804688 C 231.402344 246.996094 234.082031 242.410156 237.226562 239.535156 C 236.566406 237.386719 236.003906 235.15625 236.132812 232.769531 C 236.457031 226.804688 240.023438 223.046875 243.472656 219.410156 C 245.171875 217.621094 246.589844 215.632812 247.964844 213.703125 C 249.269531 211.871094 250.621094 209.976562 252.222656 208.238281 C 252.773438 207.640625 253.941406 206.683594 255.417969 205.46875 C 259.726562 201.941406 267.742188 195.371094 266.996094 191.644531 C 266.777344 190.554688 265.714844 189.71875 263.839844 189.15625 C 263.46875 189.042969 263.257812 188.652344 263.371094 188.28125 C 263.480469 187.910156 263.875 187.699219 264.246094 187.8125 C 266.65625 188.535156 268.042969 189.730469 268.371094 191.371094 C 269.285156 195.921875 261.476562 202.320312 256.3125 206.554688 C 254.929688 207.6875 253.738281 208.660156 253.253906 209.1875 C 251.714844 210.863281 250.386719 212.722656 249.105469 214.519531 C 247.703125 216.484375 246.257812 218.515625 244.488281 220.378906 C 241.066406 223.988281 237.832031 227.394531 237.535156 232.847656 C 237.425781 234.820312 237.839844 236.675781 238.398438 238.5625 C 240.652344 236.886719 243.128906 236.175781 245.835938 237.253906 C 247.699219 238 249.015625 239.402344 249.753906 241.425781 C 251.09375 245.105469 250.148438 250.09375 248.519531 253.121094 C 247.632812 254.773438 240.039062 263.597656 236.066406 263.851562 C 235.007812 263.921875 234.40625 263.40625 234.089844 262.96875 C 232.390625 260.585938 234.664062 257 236.671875 253.835938 C 237.617188 252.347656 238.507812 250.941406 238.726562 250.039062 C 239.488281 246.878906 238.640625 244.027344 237.695312 241.03125 C 234.910156 243.773438 232.441406 247.996094 230.386719 251.511719 C 229.074219 253.761719 227.941406 255.699219 226.933594 256.921875 C 223.894531 260.59375 222.675781 263.640625 221.132812 267.492188 C 220.730469 268.5 220.304688 269.550781 219.828125 270.679688 C 216.464844 278.578125 211.605469 284.273438 203.582031 289.714844 C 198.105469 293.429688 189.109375 298.53125 181.011719 298.53125 " fill-opacity="1" fill-rule="nonzero"/><g clip-path="url(#507e1387f7)"><path fill="#80a8af" d="M 182.800781 330.433594 C 175.460938 330.433594 168.320312 329.921875 161.402344 328.890625 C 138.699219 325.515625 114.402344 314.375 94.734375 298.324219 C 76.382812 283.347656 62.847656 264.140625 54.511719 241.234375 C 46.941406 220.445312 44.046875 197.121094 46.140625 173.785156 C 46.175781 173.398438 46.515625 173.109375 46.902344 173.148438 C 47.289062 173.183594 47.574219 173.523438 47.539062 173.910156 C 43.074219 223.703125 60.597656 268.65625 95.625 297.238281 C 115.097656 313.132812 139.148438 324.164062 161.609375 327.503906 C 182.285156 330.578125 205 329.003906 229.113281 322.824219 C 259.792969 314.960938 293.164062 286.289062 305.082031 264.449219 C 305.09375 264.421875 305.109375 264.398438 305.125 264.375 C 305.152344 264.339844 307.773438 260.621094 313.386719 249.398438 C 319.09375 237.988281 326.816406 209.066406 325.269531 183.242188 C 323.273438 150.039062 312.246094 133.480469 312.132812 133.316406 C 311.914062 133 312 132.5625 312.320312 132.34375 C 312.640625 132.125 313.078125 132.207031 313.292969 132.53125 C 313.410156 132.695312 324.652344 149.574219 326.667969 183.15625 C 328.234375 209.238281 320.417969 238.480469 314.640625 250.027344 C 309.195312 260.914062 306.59375 264.730469 306.292969 265.15625 C 294.269531 287.160156 261.488281 315.972656 229.460938 324.183594 C 213.222656 328.34375 197.601562 330.433594 182.800781 330.433594 " fill-opacity="1" fill-rule="nonzero"/></g><path fill="#80a8af" d="M 266.863281 83.796875 C 266.597656 83.796875 266.34375 83.824219 266.101562 83.878906 C 265.148438 84.097656 264.503906 84.796875 264.136719 86.011719 C 262.742188 90.628906 273.054688 98.664062 278.59375 102.976562 C 280.191406 104.222656 281.570312 105.296875 282.402344 106.058594 C 285.28125 108.691406 289.171875 111.503906 293.292969 114.480469 C 295.933594 116.390625 298.601562 118.320312 301.128906 120.28125 C 299.136719 116.640625 296.902344 113.140625 294.449219 109.824219 C 288.488281 101.769531 285.949219 98.691406 279.375 91.527344 C 277.765625 89.773438 270.90625 83.796875 266.863281 83.796875 Z M 254.613281 132.785156 C 253.933594 132.785156 253.300781 132.996094 252.789062 133.40625 C 251.921875 134.101562 251.527344 135.25 251.71875 136.554688 C 252.191406 139.835938 255.910156 143.550781 259.085938 144.957031 C 261.453125 146.003906 264.425781 145.652344 267.367188 145.195312 C 265.917969 143.714844 264.628906 142.007812 263.460938 140.460938 C 262.804688 139.59375 262.183594 138.769531 261.59375 138.066406 L 261.289062 137.699219 C 259.785156 135.894531 258.082031 133.851562 255.972656 133.050781 C 255.511719 132.875 255.050781 132.785156 254.613281 132.785156 Z M 270.59375 146.117188 C 271.8125 146.957031 273.117188 147.515625 274.527344 147.582031 C 275.628906 147.636719 276.707031 147.394531 277.773438 147 C 275.878906 145.671875 273.386719 145.738281 270.59375 146.117188 Z M 219.125 140.675781 C 218.691406 145.261719 221.28125 147.902344 224.25 150.925781 C 225.417969 152.113281 226.621094 153.339844 227.675781 154.734375 C 229.972656 157.78125 231.3125 161.445312 232.609375 164.988281 C 233.757812 168.125 234.945312 171.371094 236.785156 174.121094 C 237.207031 174.75 237.609375 175.371094 238 175.976562 C 240.949219 180.550781 243.078125 183.851562 248.867188 182.460938 C 249.355469 182.34375 249.863281 182.210938 250.386719 182.058594 C 241.746094 175.679688 235.6875 161.675781 234.828125 159.605469 C 231.339844 151.226562 226.46875 145.34375 219.125 140.675781 Z M 312.199219 180.40625 C 312.171875 181.78125 312.238281 183.148438 312.457031 184.488281 C 312.679688 185.878906 313.046875 186.707031 313.574219 187.015625 C 313.949219 187.234375 314.484375 187.21875 315.164062 186.96875 C 315.347656 186.902344 315.671875 186.757812 315.742188 186.566406 C 315.878906 186.207031 315.425781 185.378906 315.023438 184.644531 L 314.785156 184.214844 C 314.011719 182.769531 313.128906 181.472656 312.199219 180.40625 Z M 314.195312 188.574219 C 313.703125 188.574219 313.257812 188.457031 312.863281 188.226562 C 311.652344 187.515625 311.257812 185.882812 311.070312 184.714844 C 310.765625 182.824219 310.734375 180.914062 310.851562 179.007812 C 306.585938 174.578125 304.507812 168.804688 302.492188 163.210938 C 299.976562 156.238281 297.601562 149.652344 291.355469 145.351562 C 288.15625 143.152344 285.324219 144.695312 282.046875 146.480469 C 281.445312 146.808594 280.84375 147.136719 280.230469 147.445312 C 280.773438 148.1875 281.253906 149.09375 281.648438 150.207031 C 283.085938 154.25 282.65625 158.4375 280.371094 162.652344 C 275.601562 171.457031 263.082031 179.050781 253.625 182.472656 C 255.625 183.492188 257.738281 184 259.925781 183.75 C 260.316406 183.707031 260.65625 183.980469 260.703125 184.367188 C 260.746094 184.75 260.46875 185.097656 260.082031 185.140625 C 257.191406 185.472656 254.4375 184.628906 251.882812 183.066406 C 250.945312 183.371094 250.042969 183.625 249.195312 183.828125 C 242.4375 185.449219 239.835938 181.410156 236.820312 176.734375 C 236.433594 176.136719 236.039062 175.523438 235.621094 174.898438 C 233.6875 172.011719 232.46875 168.6875 231.292969 165.472656 C 229.972656 161.867188 228.726562 158.457031 226.554688 155.578125 C 225.558594 154.257812 224.386719 153.0625 223.25 151.910156 C 220.082031 148.683594 216.800781 145.34375 217.886719 139.386719 C 217.929688 139.15625 218.078125 138.964844 218.289062 138.871094 C 218.5 138.777344 218.746094 138.792969 218.941406 138.910156 C 227.070312 143.835938 232.371094 150.050781 236.125 159.070312 C 236.992188 161.152344 243.335938 175.835938 252.03125 181.546875 C 261.335938 178.441406 274.339844 170.835938 279.136719 161.984375 C 281.226562 158.132812 281.625 154.328125 280.324219 150.679688 C 279.9375 149.589844 279.460938 148.730469 278.910156 148.058594 C 277.496094 148.65625 276.023438 149.058594 274.457031 148.984375 C 272.277344 148.878906 270.367188 147.847656 268.667969 146.410156 C 268.582031 146.421875 268.496094 146.433594 268.410156 146.449219 C 265.007812 146.992188 261.484375 147.554688 258.515625 146.238281 C 255.011719 144.6875 250.886719 140.621094 250.328125 136.753906 C 250.070312 134.972656 250.664062 133.3125 251.914062 132.3125 C 253.152344 131.316406 254.816406 131.109375 256.472656 131.738281 C 258.925781 132.667969 260.753906 134.863281 262.367188 136.804688 L 262.671875 137.164062 C 263.285156 137.898438 263.914062 138.734375 264.582031 139.617188 C 265.914062 141.382812 267.414062 143.371094 269.105469 144.917969 C 272.859375 144.335938 276.609375 143.949219 279.257812 146.359375 C 279.96875 146.015625 280.675781 145.628906 281.375 145.25 C 284.753906 143.410156 288.246094 141.507812 292.152344 144.195312 C 298.769531 148.75 301.332031 155.859375 303.8125 162.738281 C 305.632812 167.792969 307.511719 173 311.011719 177.097656 C 311.171875 175.539062 311.402344 173.992188 311.632812 172.464844 C 312.023438 169.835938 312.425781 167.121094 312.457031 164.503906 C 312.53125 158.167969 311.859375 151.695312 310.464844 145.265625 C 308.828125 137.703125 306.214844 130.320312 302.757812 123.394531 C 299.492188 120.695312 295.875 118.078125 292.46875 115.617188 C 288.316406 112.617188 284.394531 109.78125 281.457031 107.09375 C 280.664062 106.367188 279.304688 105.308594 277.730469 104.085938 C 271.117188 98.929688 261.121094 91.144531 262.796875 85.605469 C 263.3125 83.886719 264.320312 82.847656 265.789062 82.511719 C 270.71875 81.390625 278.988281 89.027344 280.410156 90.578125 C 287.027344 97.789062 289.578125 100.886719 295.578125 108.992188 C 298.707031 113.21875 301.480469 117.742188 303.867188 122.476562 C 307.636719 125.605469 310.882812 128.824219 312.925781 132.167969 C 313.125 132.5 313.019531 132.929688 312.6875 133.132812 C 312.359375 133.332031 311.925781 133.230469 311.726562 132.898438 C 310.246094 130.472656 308.019531 128.054688 305.40625 125.683594 C 308.230469 131.855469 310.402344 138.34375 311.835938 144.96875 C 313.253906 151.5 313.933594 158.078125 313.859375 164.519531 C 313.828125 167.234375 313.417969 169.996094 313.019531 172.671875 C 312.734375 174.585938 312.445312 176.53125 312.292969 178.472656 C 312.316406 178.496094 312.339844 178.515625 312.363281 178.539062 C 313.695312 179.832031 314.957031 181.566406 316.023438 183.550781 L 316.253906 183.96875 C 316.855469 185.0625 317.421875 186.097656 317.058594 187.0625 C 316.855469 187.605469 316.378906 188.019531 315.644531 188.289062 C 315.125 188.476562 314.640625 188.574219 314.195312 188.574219 " fill-opacity="1" fill-rule="nonzero"/><path fill="#80a8af" d="M 94.042969 225.441406 C 94.023438 225.441406 94 225.441406 93.980469 225.445312 C 93.773438 225.457031 93.539062 225.519531 93.375 225.90625 C 92.988281 226.804688 93.289062 228.59375 93.960938 229.757812 C 94.242188 229.28125 94.617188 228.476562 94.902344 227.640625 C 95.074219 227.140625 95.421875 226.488281 95.855469 225.8125 C 95.207031 225.632812 94.449219 225.441406 94.042969 225.441406 Z M 79.84375 233.011719 C 79.730469 233.011719 79.617188 232.992188 79.507812 232.953125 C 78.789062 232.6875 78.152344 231.859375 77.6875 224.339844 C 77.558594 222.246094 77.253906 217.335938 76.550781 215.675781 C 76.167969 214.769531 74.476562 213.589844 72.980469 212.550781 C 72.011719 211.875 71.09375 211.238281 70.40625 210.609375 C 68.121094 208.515625 67.285156 206.707031 68 205.378906 C 68.265625 204.890625 68.695312 204.546875 69.25 204.394531 C 70.433594 204.0625 72.125 204.558594 74.417969 205.914062 C 75.359375 206.46875 76.109375 207.003906 76.769531 207.476562 C 78.3125 208.574219 79.425781 209.367188 81.8125 209.601562 C 83.921875 209.808594 88.324219 208.683594 91.859375 207.777344 C 94.210938 207.171875 96.070312 206.695312 96.945312 206.6875 C 98.089844 206.664062 98.757812 207 98.957031 207.660156 C 99.179688 208.398438 98.636719 209.253906 97.464844 210.011719 L 96.144531 210.855469 C 93.921875 212.28125 89.78125 214.929688 88.722656 215.703125 C 88.707031 216.152344 90.222656 217.292969 90.867188 217.78125 C 91.238281 218.0625 91.574219 218.316406 91.820312 218.527344 C 92.109375 218.785156 92.140625 219.226562 91.886719 219.519531 C 91.632812 219.8125 91.191406 219.839844 90.898438 219.585938 C 90.671875 219.390625 90.363281 219.160156 90.023438 218.902344 C 88.414062 217.691406 87.277344 216.75 87.285156 215.691406 C 87.285156 215.382812 87.394531 214.9375 87.894531 214.574219 C 88.988281 213.769531 92.996094 211.207031 95.386719 209.675781 L 96.703125 208.832031 C 97.136719 208.550781 97.390625 208.296875 97.515625 208.128906 C 97.402344 208.105469 97.226562 208.085938 96.960938 208.089844 C 96.257812 208.097656 94.289062 208.601562 92.207031 209.136719 C 88.566406 210.066406 84.035156 211.230469 81.675781 210.996094 C 78.917969 210.726562 77.609375 209.796875 75.957031 208.617188 C 75.316406 208.164062 74.59375 207.648438 73.707031 207.121094 C 71.09375 205.582031 69.984375 205.644531 69.628906 205.742188 C 69.441406 205.796875 69.320312 205.886719 69.234375 206.042969 C 68.972656 206.539062 69.367188 207.757812 71.355469 209.574219 C 71.972656 210.140625 72.851562 210.75 73.785156 211.402344 C 75.59375 212.660156 77.304688 213.851562 77.847656 215.132812 C 78.542969 216.785156 78.855469 220.492188 79.089844 224.253906 C 79.375 228.863281 79.714844 230.648438 79.941406 231.335938 C 80.417969 230.585938 81.148438 228.699219 81.609375 226.71875 C 81.742188 226.15625 81.839844 225.449219 81.9375 224.703125 C 82.246094 222.460938 82.558594 220.144531 84.175781 220.117188 C 84.757812 220.117188 85.3125 220.351562 85.9375 220.632812 C 87.152344 221.175781 88.816406 221.917969 92.074219 221.363281 C 93.238281 221.167969 94.214844 220.988281 95.039062 220.839844 C 98.007812 220.296875 99.121094 220.09375 100.128906 220.546875 C 100.367188 220.652344 101.007812 220.9375 101.085938 221.585938 C 101.175781 222.304688 100.578125 222.769531 99.585938 223.542969 L 99.507812 223.605469 C 99.105469 223.917969 98.636719 224.417969 98.179688 224.980469 C 100.167969 225.539062 102.039062 226.386719 103.660156 227.15625 C 104.011719 227.320312 104.160156 227.738281 103.996094 228.089844 C 103.828125 228.4375 103.410156 228.589844 103.0625 228.421875 C 101.347656 227.613281 99.355469 226.707031 97.28125 226.191406 C 96.789062 226.925781 96.390625 227.632812 96.230469 228.097656 C 95.820312 229.285156 95 231.300781 94.082031 231.476562 C 93.769531 231.535156 93.453125 231.421875 93.246094 231.171875 C 92.121094 229.847656 91.371094 227.015625 92.085938 225.351562 C 92.425781 224.554688 93.070312 224.089844 93.902344 224.042969 C 94.554688 224 95.515625 224.257812 96.691406 224.585938 C 96.699219 224.589844 96.703125 224.589844 96.710938 224.589844 C 97.363281 223.730469 98.070312 222.945312 98.644531 222.496094 L 98.722656 222.4375 C 99 222.21875 99.300781 221.984375 99.503906 221.804688 C 98.875 221.566406 97.726562 221.777344 95.292969 222.21875 C 94.460938 222.371094 93.480469 222.546875 92.3125 222.746094 C 88.632812 223.375 86.667969 222.492188 85.367188 221.914062 C 84.871094 221.691406 84.492188 221.511719 84.195312 221.519531 C 83.765625 221.6875 83.460938 223.933594 83.328125 224.894531 C 83.222656 225.671875 83.125 226.410156 82.976562 227.039062 C 82.929688 227.246094 81.773438 232.113281 80.359375 232.878906 C 80.195312 232.964844 80.019531 233.011719 79.84375 233.011719 " fill-opacity="1" fill-rule="nonzero"/><path fill="#80a8af" d="M 324.851562 241.628906 C 324.722656 241.628906 324.59375 241.59375 324.480469 241.519531 C 324.152344 241.3125 324.050781 240.878906 324.257812 240.550781 C 330.128906 231.203125 324.351562 222.757812 321.59375 219.558594 C 317.832031 215.195312 311.996094 212.480469 306.25 210.199219 C 289.089844 203.378906 268.9375 205.914062 251.492188 209.292969 C 234.722656 212.542969 218.167969 217.769531 202.15625 222.820312 L 201.507812 223.027344 C 197.574219 224.269531 193.378906 225.71875 188.9375 227.253906 C 163.285156 236.121094 131.355469 247.160156 108.882812 232.21875 C 108.5625 232.007812 108.472656 231.570312 108.6875 231.246094 C 108.902344 230.925781 109.339844 230.835938 109.660156 231.050781 C 131.554688 245.609375 163.117188 234.695312 188.480469 225.929688 C 192.929688 224.390625 197.132812 222.9375 201.082031 221.691406 L 201.734375 221.484375 C 217.785156 216.417969 234.378906 211.179688 251.226562 207.917969 C 268.871094 204.496094 289.269531 201.941406 306.765625 208.894531 C 312.679688 211.242188 318.699219 214.050781 322.65625 218.640625 C 325.617188 222.074219 331.816406 231.15625 325.445312 241.296875 C 325.3125 241.511719 325.085938 241.628906 324.851562 241.628906 " fill-opacity="1" fill-rule="nonzero"/></svg>