<svg xmlns="http://www.w3.org/2000/svg" xmlns:xlink="http://www.w3.org/1999/xlink" width="500" zoomAndPan="magnify" viewBox="0 0 375 374.999991" height="500" preserveAspectRatio="xMidYMid meet" version="1.0"><defs><clipPath id="b307b15bbe"><path d="M 0 0.179688 L 375 0.179688 L 375 375 L 0 375 Z M 0 0.179688 " clip-rule="nonzero"/></clipPath></defs><g clip-path="url(#b307b15bbe)"><path fill="#cde5e9" d="M 375 187.679688 C 375 190.746094 374.925781 193.816406 374.773438 196.878906 C 374.625 199.945312 374.398438 203.003906 374.097656 206.058594 C 373.796875 209.113281 373.421875 212.15625 372.96875 215.191406 C 372.519531 218.226562 371.996094 221.25 371.398438 224.257812 C 370.796875 227.269531 370.125 230.261719 369.378906 233.238281 C 368.636719 236.214844 367.816406 239.171875 366.925781 242.109375 C 366.035156 245.042969 365.074219 247.957031 364.039062 250.847656 C 363.003906 253.734375 361.902344 256.597656 360.726562 259.433594 C 359.554688 262.265625 358.308594 265.070312 356.996094 267.847656 C 355.6875 270.621094 354.308594 273.359375 352.859375 276.066406 C 351.414062 278.773438 349.902344 281.441406 348.324219 284.074219 C 346.746094 286.707031 345.105469 289.296875 343.402344 291.847656 C 341.695312 294.398438 339.929688 296.910156 338.101562 299.371094 C 336.273438 301.835938 334.386719 304.257812 332.441406 306.628906 C 330.492188 309 328.488281 311.324219 326.429688 313.597656 C 324.367188 315.871094 322.253906 318.09375 320.082031 320.261719 C 317.914062 322.433594 315.691406 324.546875 313.417969 326.609375 C 311.144531 328.667969 308.820312 330.671875 306.449219 332.617188 C 304.078125 334.566406 301.660156 336.453125 299.195312 338.28125 C 296.730469 340.109375 294.222656 341.875 291.667969 343.578125 C 289.117188 345.285156 286.527344 346.925781 283.894531 348.503906 C 281.261719 350.082031 278.59375 351.59375 275.886719 353.039062 C 273.179688 354.484375 270.441406 355.867188 267.667969 357.175781 C 264.890625 358.488281 262.089844 359.730469 259.253906 360.90625 C 256.417969 362.082031 253.554688 363.183594 250.667969 364.21875 C 247.777344 365.253906 244.863281 366.214844 241.929688 367.105469 C 238.992188 367.996094 236.035156 368.816406 233.058594 369.558594 C 230.082031 370.304688 227.089844 370.976562 224.078125 371.578125 C 221.070312 372.175781 218.046875 372.699219 215.011719 373.148438 C 211.976562 373.601562 208.933594 373.976562 205.878906 374.277344 C 202.824219 374.578125 199.765625 374.804688 196.699219 374.953125 C 193.636719 375.105469 190.570312 375.179688 187.5 375.179688 C 184.429688 375.179688 181.363281 375.105469 178.300781 374.953125 C 175.234375 374.804688 172.175781 374.578125 169.121094 374.277344 C 166.066406 373.976562 163.023438 373.601562 159.988281 373.148438 C 156.953125 372.699219 153.929688 372.175781 150.921875 371.578125 C 147.910156 370.976562 144.917969 370.304688 141.941406 369.558594 C 138.964844 368.816406 136.007812 367.996094 133.070312 367.105469 C 130.136719 366.214844 127.222656 365.253906 124.332031 364.21875 C 121.445312 363.183594 118.582031 362.082031 115.746094 360.90625 C 112.910156 359.730469 110.105469 358.488281 107.332031 357.175781 C 104.558594 355.867188 101.820312 354.484375 99.113281 353.039062 C 96.40625 351.59375 93.738281 350.082031 91.105469 348.503906 C 88.472656 346.925781 85.882812 345.285156 83.332031 343.578125 C 80.777344 341.875 78.269531 340.109375 75.804688 338.28125 C 73.339844 336.453125 70.921875 334.566406 68.550781 332.617188 C 66.179688 330.671875 63.855469 328.667969 61.582031 326.609375 C 59.308594 324.546875 57.085938 322.433594 54.917969 320.261719 C 52.746094 318.09375 50.632812 315.871094 48.570312 313.597656 C 46.511719 311.324219 44.507812 309 42.558594 306.628906 C 40.613281 304.257812 38.726562 301.835938 36.898438 299.371094 C 35.070312 296.910156 33.304688 294.398438 31.597656 291.847656 C 29.894531 289.296875 28.253906 286.707031 26.675781 284.074219 C 25.097656 281.441406 23.585938 278.773438 22.140625 276.066406 C 20.691406 273.359375 19.3125 270.621094 18.003906 267.847656 C 16.691406 265.070312 15.445312 262.265625 14.273438 259.433594 C 13.097656 256.597656 11.996094 253.734375 10.960938 250.847656 C 9.925781 247.957031 8.964844 245.042969 8.074219 242.109375 C 7.183594 239.171875 6.363281 236.214844 5.617188 233.238281 C 4.875 230.261719 4.203125 227.269531 3.601562 224.257812 C 3.003906 221.25 2.480469 218.226562 2.03125 215.191406 C 1.578125 212.15625 1.203125 209.113281 0.902344 206.058594 C 0.601562 203.003906 0.375 199.945312 0.226562 196.878906 C 0.0742188 193.816406 0 190.746094 0 187.679688 C 0 184.609375 0.0742188 181.542969 0.226562 178.480469 C 0.375 175.414062 0.601562 172.355469 0.902344 169.300781 C 1.203125 166.246094 1.578125 163.203125 2.03125 160.167969 C 2.480469 157.132812 3.003906 154.109375 3.601562 151.101562 C 4.203125 148.089844 4.875 145.097656 5.617188 142.121094 C 6.363281 139.144531 7.183594 136.1875 8.074219 133.25 C 8.964844 130.316406 9.925781 127.402344 10.960938 124.511719 C 11.996094 121.625 13.097656 118.761719 14.273438 115.925781 C 15.445312 113.089844 16.691406 110.285156 18.003906 107.511719 C 19.3125 104.738281 20.691406 102 22.140625 99.292969 C 23.585938 96.585938 25.097656 93.917969 26.675781 91.285156 C 28.253906 88.652344 29.894531 86.0625 31.597656 83.511719 C 33.304688 80.957031 35.070312 78.449219 36.898438 75.984375 C 38.726562 73.519531 40.613281 71.101562 42.558594 68.730469 C 44.507812 66.359375 46.511719 64.035156 48.570312 61.761719 C 50.632812 59.488281 52.746094 57.265625 54.917969 55.097656 C 57.085938 52.925781 59.308594 50.8125 61.582031 48.75 C 63.855469 46.691406 66.179688 44.6875 68.550781 42.738281 C 70.921875 40.792969 73.339844 38.90625 75.804688 37.078125 C 78.269531 35.25 80.777344 33.484375 83.332031 31.777344 C 85.882812 30.074219 88.472656 28.433594 91.105469 26.855469 C 93.738281 25.277344 96.40625 23.765625 99.113281 22.320312 C 101.820312 20.871094 104.558594 19.492188 107.332031 18.179688 C 110.105469 16.871094 112.910156 15.625 115.746094 14.453125 C 118.582031 13.277344 121.445312 12.171875 124.332031 11.140625 C 127.222656 10.105469 130.136719 9.144531 133.070312 8.253906 C 136.007812 7.363281 138.964844 6.542969 141.941406 5.796875 C 144.917969 5.054688 147.910156 4.378906 150.921875 3.78125 C 153.929688 3.183594 156.953125 2.660156 159.988281 2.207031 C 163.023438 1.757812 166.066406 1.382812 169.121094 1.082031 C 172.175781 0.78125 175.234375 0.554688 178.300781 0.40625 C 181.363281 0.253906 184.429688 0.179688 187.5 0.179688 C 190.570312 0.179688 193.636719 0.253906 196.699219 0.40625 C 199.765625 0.554688 202.824219 0.78125 205.878906 1.082031 C 208.933594 1.382812 211.976562 1.757812 215.011719 2.207031 C 218.046875 2.660156 221.070312 3.183594 224.078125 3.78125 C 227.089844 4.378906 230.082031 5.054688 233.058594 5.796875 C 236.035156 6.542969 238.992188 7.363281 241.929688 8.253906 C 244.863281 9.144531 247.777344 10.105469 250.667969 11.140625 C 253.554688 12.171875 256.417969 13.277344 259.253906 14.453125 C 262.089844 15.625 264.890625 16.871094 267.667969 18.179688 C 270.441406 19.492188 273.179688 20.871094 275.886719 22.320312 C 278.59375 23.765625 281.261719 25.277344 283.894531 26.855469 C 286.527344 28.433594 289.117188 30.074219 291.667969 31.777344 C 294.222656 33.484375 296.730469 35.25 299.195312 37.078125 C 301.660156 38.90625 304.078125 40.792969 306.449219 42.738281 C 308.820312 44.6875 311.144531 46.691406 313.417969 48.75 C 315.691406 50.8125 317.914062 52.925781 320.082031 55.097656 C 322.253906 57.265625 324.367188 59.488281 326.429688 61.761719 C 328.488281 64.035156 330.492188 66.359375 332.441406 68.730469 C 334.386719 71.101562 336.273438 73.519531 338.101562 75.984375 C 339.929688 78.449219 341.695312 80.957031 343.402344 83.511719 C 345.105469 86.0625 346.746094 88.652344 348.324219 91.285156 C 349.902344 93.917969 351.414062 96.585938 352.859375 99.292969 C 354.308594 102 355.6875 104.738281 356.996094 107.511719 C 358.308594 110.285156 359.554688 113.089844 360.726562 115.925781 C 361.902344 118.761719 363.003906 121.625 364.039062 124.511719 C 365.074219 127.402344 366.035156 130.316406 366.925781 133.25 C 367.816406 136.1875 368.636719 139.144531 369.378906 142.121094 C 370.125 145.097656 370.796875 148.089844 371.398438 151.101562 C 371.996094 154.109375 372.519531 157.132812 372.96875 160.167969 C 373.421875 163.203125 373.796875 166.246094 374.097656 169.300781 C 374.398438 172.355469 374.625 175.414062 374.773438 178.480469 C 374.925781 181.542969 375 184.609375 375 187.679688 Z M 375 187.679688 " fill-opacity="1" fill-rule="nonzero"/></g><path fill="#80a8af" d="M 136.664062 292.144531 C 135.886719 292.144531 135.097656 292.003906 134.335938 291.710938 C 131.773438 290.734375 130.117188 288.3125 130.117188 285.550781 L 130.117188 158.207031 C 130.117188 155.839844 132.035156 153.921875 134.402344 153.921875 C 136.769531 153.921875 138.6875 155.839844 138.6875 158.207031 L 138.6875 280.246094 L 182.652344 231.085938 C 183.886719 229.707031 185.65625 228.914062 187.5 228.914062 C 189.34375 228.914062 191.113281 229.703125 192.347656 231.085938 L 236.3125 280.246094 L 236.3125 91.785156 L 138.6875 91.785156 L 138.6875 117.113281 C 138.6875 119.480469 136.769531 121.398438 134.402344 121.398438 C 132.035156 121.398438 130.117188 119.480469 130.117188 117.113281 L 130.117188 89.804688 C 130.117188 86.171875 133.046875 83.214844 136.648438 83.214844 L 238.351562 83.214844 C 241.953125 83.214844 244.882812 86.171875 244.882812 89.804688 L 244.882812 285.550781 C 244.882812 288.316406 243.226562 290.734375 240.664062 291.714844 C 238.132812 292.679688 235.320312 291.992188 233.503906 289.964844 L 187.5 238.523438 L 141.496094 289.964844 C 140.226562 291.382812 138.472656 292.144531 136.664062 292.144531 Z M 136.664062 292.144531 " fill-opacity="1" fill-rule="nonzero"/></svg>