<svg xmlns="http://www.w3.org/2000/svg" xmlns:xlink="http://www.w3.org/1999/xlink" width="500" zoomAndPan="magnify" viewBox="0 0 375 374.999991" height="500" preserveAspectRatio="xMidYMid meet" version="1.0"><path fill="#323232" d="M 375 318.007812 C 375 349.5 349.46875 374.96875 318.039062 374.96875 L 56.960938 374.96875 C 25.464844 374.96875 0 349.4375 0 318.007812 L 0 56.992188 C 0 25.5625 25.464844 0.03125 56.960938 0.03125 L 317.976562 0.03125 C 349.46875 0.03125 374.933594 25.5625 374.933594 56.992188 Z M 375 318.007812 " fill-opacity="1" fill-rule="nonzero"/><path fill="#ffffff" d="M 183.253906 69.433594 C 115.605469 69.433594 60.847656 124.253906 60.847656 191.839844 C 60.847656 241.996094 91.042969 285.023438 134.136719 304.011719 C 133.8125 295.457031 134.070312 285.21875 136.273438 275.953125 C 138.671875 265.972656 152.023438 209.207031 152.023438 209.207031 C 152.023438 209.207031 148.070312 201.433594 148.070312 189.832031 C 148.070312 171.6875 158.632812 158.144531 171.65625 158.144531 C 182.738281 158.144531 188.179688 166.503906 188.179688 176.484375 C 188.179688 187.695312 180.988281 204.414062 177.359375 219.898438 C 174.25 232.859375 183.839844 243.488281 196.667969 243.488281 C 219.867188 243.488281 235.484375 213.679688 235.484375 178.363281 C 235.484375 151.535156 217.40625 131.449219 184.550781 131.449219 C 147.421875 131.449219 124.289062 159.117188 124.289062 190.09375 C 124.289062 200.71875 127.460938 208.300781 132.386719 214.066406 C 134.65625 216.789062 134.980469 217.828125 134.136719 220.871094 C 133.617188 223.140625 132.191406 228.582031 131.675781 230.65625 C 130.832031 233.765625 128.371094 234.867188 125.582031 233.765625 C 108.476562 226.832031 100.503906 208.105469 100.503906 187.046875 C 100.503906 152.25 129.796875 110.515625 188.050781 110.515625 C 234.773438 110.515625 265.617188 144.40625 265.617188 180.632812 C 265.617188 228.714844 238.917969 264.546875 199.519531 264.546875 C 186.300781 264.546875 173.859375 257.355469 169.582031 249.253906 C 169.582031 249.253906 162.453125 277.507812 160.964844 282.886719 C 158.371094 292.28125 153.253906 301.808594 148.652344 309.128906 C 159.667969 312.371094 171.332031 314.121094 183.386719 314.121094 C 251.035156 314.121094 305.792969 259.300781 305.792969 191.710938 C 305.726562 124.320312 250.84375 69.433594 183.253906 69.433594 Z M 183.253906 69.433594 " fill-opacity="1" fill-rule="nonzero"/></svg>