<svg xmlns="http://www.w3.org/2000/svg" xmlns:xlink="http://www.w3.org/1999/xlink" width="500" zoomAndPan="magnify" viewBox="0 0 375 374.999991" height="500" preserveAspectRatio="xMidYMid meet" version="1.0"><defs><clipPath id="1ea64cec71"><path d="M 318 70 L 334 70 L 334 80 L 318 80 Z M 318 70 " clip-rule="nonzero"/></clipPath><clipPath id="4c08224ce8"><path d="M 0.71875 165.097656 L 332.425781 67.566406 L 374.316406 210.035156 L 42.609375 307.566406 Z M 0.71875 165.097656 " clip-rule="nonzero"/></clipPath><clipPath id="7f08dcb5c2"><path d="M 0.71875 165.097656 L 332.425781 67.566406 L 374.316406 210.035156 L 42.609375 307.566406 Z M 0.71875 165.097656 " clip-rule="nonzero"/></clipPath><clipPath id="5dd6b91b13"><path d="M 0.71875 165.097656 L 332.425781 67.566406 L 374.316406 210.035156 L 42.609375 307.566406 Z M 0.71875 165.097656 " clip-rule="nonzero"/></clipPath><clipPath id="0fecbc417d"><path d="M 292 89 L 311 89 L 311 108 L 292 108 Z M 292 89 " clip-rule="nonzero"/></clipPath><clipPath id="ac1442bb4c"><path d="M 0.71875 165.097656 L 332.425781 67.566406 L 374.316406 210.035156 L 42.609375 307.566406 Z M 0.71875 165.097656 " clip-rule="nonzero"/></clipPath><clipPath id="7e203bfdc1"><path d="M 0.71875 165.097656 L 332.425781 67.566406 L 374.316406 210.035156 L 42.609375 307.566406 Z M 0.71875 165.097656 " clip-rule="nonzero"/></clipPath><clipPath id="54efbffb40"><path d="M 0.71875 165.097656 L 332.425781 67.566406 L 374.316406 210.035156 L 42.609375 307.566406 Z M 0.71875 165.097656 " clip-rule="nonzero"/></clipPath><clipPath id="496e5c42da"><path d="M 1 101 L 285 101 L 285 179 L 1 179 Z M 1 101 " clip-rule="nonzero"/></clipPath><clipPath id="be8ff79ef7"><path d="M 0.71875 165.097656 L 332.425781 67.566406 L 374.316406 210.035156 L 42.609375 307.566406 Z M 0.71875 165.097656 " clip-rule="nonzero"/></clipPath><clipPath id="48d0b18523"><path d="M 0.71875 165.097656 L 332.425781 67.566406 L 374.316406 210.035156 L 42.609375 307.566406 Z M 0.71875 165.097656 " clip-rule="nonzero"/></clipPath><clipPath id="3dac6c0505"><path d="M 0.71875 165.097656 L 332.425781 67.566406 L 374.316406 210.035156 L 42.609375 307.566406 Z M 0.71875 165.097656 " clip-rule="nonzero"/></clipPath><clipPath id="958048fff6"><path d="M 69 93 L 341 93 L 341 200 L 69 200 Z M 69 93 " clip-rule="nonzero"/></clipPath><clipPath id="74045d9f72"><path d="M 0.71875 165.097656 L 332.425781 67.566406 L 374.316406 210.035156 L 42.609375 307.566406 Z M 0.71875 165.097656 " clip-rule="nonzero"/></clipPath><clipPath id="1482038619"><path d="M 0.71875 165.097656 L 332.425781 67.566406 L 374.316406 210.035156 L 42.609375 307.566406 Z M 0.71875 165.097656 " clip-rule="nonzero"/></clipPath><clipPath id="0e798726f9"><path d="M 0.71875 165.097656 L 332.425781 67.566406 L 374.316406 210.035156 L 42.609375 307.566406 Z M 0.71875 165.097656 " clip-rule="nonzero"/></clipPath><clipPath id="9faad1f1ac"><path d="M 8 188 L 54 188 L 54 200 L 8 200 Z M 8 188 " clip-rule="nonzero"/></clipPath><clipPath id="5937eed517"><path d="M 0.71875 165.097656 L 332.425781 67.566406 L 374.316406 210.035156 L 42.609375 307.566406 Z M 0.71875 165.097656 " clip-rule="nonzero"/></clipPath><clipPath id="4d81481d9d"><path d="M 0.71875 165.097656 L 332.425781 67.566406 L 374.316406 210.035156 L 42.609375 307.566406 Z M 0.71875 165.097656 " clip-rule="nonzero"/></clipPath><clipPath id="1214ca7bfb"><path d="M 0.71875 165.097656 L 332.425781 67.566406 L 374.316406 210.035156 L 42.609375 307.566406 Z M 0.71875 165.097656 " clip-rule="nonzero"/></clipPath><clipPath id="7f1a3ecd16"><path d="M 15 115 L 347 115 L 347 223 L 15 223 Z M 15 115 " clip-rule="nonzero"/></clipPath><clipPath id="cd177c665e"><path d="M 0.71875 165.097656 L 332.425781 67.566406 L 374.316406 210.035156 L 42.609375 307.566406 Z M 0.71875 165.097656 " clip-rule="nonzero"/></clipPath><clipPath id="d1a88f88bb"><path d="M 0.71875 165.097656 L 332.425781 67.566406 L 374.316406 210.035156 L 42.609375 307.566406 Z M 0.71875 165.097656 " clip-rule="nonzero"/></clipPath><clipPath id="dfdea89ea3"><path d="M 0.71875 165.097656 L 332.425781 67.566406 L 374.316406 210.035156 L 42.609375 307.566406 Z M 0.71875 165.097656 " clip-rule="nonzero"/></clipPath><clipPath id="8ccb45b39f"><path d="M 21 137 L 354 137 L 354 246 L 21 246 Z M 21 137 " clip-rule="nonzero"/></clipPath><clipPath id="1fde024cfd"><path d="M 0.71875 165.097656 L 332.425781 67.566406 L 374.316406 210.035156 L 42.609375 307.566406 Z M 0.71875 165.097656 " clip-rule="nonzero"/></clipPath><clipPath id="3e84c83a97"><path d="M 0.71875 165.097656 L 332.425781 67.566406 L 374.316406 210.035156 L 42.609375 307.566406 Z M 0.71875 165.097656 " clip-rule="nonzero"/></clipPath><clipPath id="4ab9718fa7"><path d="M 0.71875 165.097656 L 332.425781 67.566406 L 374.316406 210.035156 L 42.609375 307.566406 Z M 0.71875 165.097656 " clip-rule="nonzero"/></clipPath><clipPath id="0a9b8ccbd0"><path d="M 256 160 L 360 160 L 360 204 L 256 204 Z M 256 160 " clip-rule="nonzero"/></clipPath><clipPath id="140f195c54"><path d="M 0.71875 165.097656 L 332.425781 67.566406 L 374.316406 210.035156 L 42.609375 307.566406 Z M 0.71875 165.097656 " clip-rule="nonzero"/></clipPath><clipPath id="06d2f73e83"><path d="M 0.71875 165.097656 L 332.425781 67.566406 L 374.316406 210.035156 L 42.609375 307.566406 Z M 0.71875 165.097656 " clip-rule="nonzero"/></clipPath><clipPath id="ddbbe70a04"><path d="M 0.71875 165.097656 L 332.425781 67.566406 L 374.316406 210.035156 L 42.609375 307.566406 Z M 0.71875 165.097656 " clip-rule="nonzero"/></clipPath><clipPath id="e20a8b56b5"><path d="M 28 193 L 246 193 L 246 268 L 28 268 Z M 28 193 " clip-rule="nonzero"/></clipPath><clipPath id="baa91c0158"><path d="M 0.71875 165.097656 L 332.425781 67.566406 L 374.316406 210.035156 L 42.609375 307.566406 Z M 0.71875 165.097656 " clip-rule="nonzero"/></clipPath><clipPath id="0239cb5e73"><path d="M 0.71875 165.097656 L 332.425781 67.566406 L 374.316406 210.035156 L 42.609375 307.566406 Z M 0.71875 165.097656 " clip-rule="nonzero"/></clipPath><clipPath id="b565e5f160"><path d="M 0.71875 165.097656 L 332.425781 67.566406 L 374.316406 210.035156 L 42.609375 307.566406 Z M 0.71875 165.097656 " clip-rule="nonzero"/></clipPath><clipPath id="00ff2eb5a9"><path d="M 117 182 L 367 182 L 367 274 L 117 274 Z M 117 182 " clip-rule="nonzero"/></clipPath><clipPath id="d19fbb0e94"><path d="M 0.71875 165.097656 L 332.425781 67.566406 L 374.316406 210.035156 L 42.609375 307.566406 Z M 0.71875 165.097656 " clip-rule="nonzero"/></clipPath><clipPath id="3bf8cfa930"><path d="M 0.71875 165.097656 L 332.425781 67.566406 L 374.316406 210.035156 L 42.609375 307.566406 Z M 0.71875 165.097656 " clip-rule="nonzero"/></clipPath><clipPath id="a40d099af4"><path d="M 0.71875 165.097656 L 332.425781 67.566406 L 374.316406 210.035156 L 42.609375 307.566406 Z M 0.71875 165.097656 " clip-rule="nonzero"/></clipPath><clipPath id="7418433f7d"><path d="M 93 278 L 113 278 L 113 290 L 93 290 Z M 93 278 " clip-rule="nonzero"/></clipPath><clipPath id="f637b18e0e"><path d="M 0.71875 165.097656 L 332.425781 67.566406 L 374.316406 210.035156 L 42.609375 307.566406 Z M 0.71875 165.097656 " clip-rule="nonzero"/></clipPath><clipPath id="ae47c52d59"><path d="M 0.71875 165.097656 L 332.425781 67.566406 L 374.316406 210.035156 L 42.609375 307.566406 Z M 0.71875 165.097656 " clip-rule="nonzero"/></clipPath><clipPath id="263493bdb3"><path d="M 0.71875 165.097656 L 332.425781 67.566406 L 374.316406 210.035156 L 42.609375 307.566406 Z M 0.71875 165.097656 " clip-rule="nonzero"/></clipPath><clipPath id="58f13a6d9d"><path d="M 34 277 L 82 277 L 82 290 L 34 290 Z M 34 277 " clip-rule="nonzero"/></clipPath><clipPath id="20bb8843ec"><path d="M 0.71875 165.097656 L 332.425781 67.566406 L 374.316406 210.035156 L 42.609375 307.566406 Z M 0.71875 165.097656 " clip-rule="nonzero"/></clipPath><clipPath id="3bf9f87ddd"><path d="M 0.71875 165.097656 L 332.425781 67.566406 L 374.316406 210.035156 L 42.609375 307.566406 Z M 0.71875 165.097656 " clip-rule="nonzero"/></clipPath><clipPath id="4403de10ad"><path d="M 0.71875 165.097656 L 332.425781 67.566406 L 374.316406 210.035156 L 42.609375 307.566406 Z M 0.71875 165.097656 " clip-rule="nonzero"/></clipPath></defs><g clip-path="url(#1ea64cec71)"><g clip-path="url(#4c08224ce8)"><g clip-path="url(#7f08dcb5c2)"><g clip-path="url(#5dd6b91b13)"><path fill="#343434" d="M 320.171875 79.511719 C 319.605469 79.679688 318.96875 79.480469 318.601562 78.972656 C 318.136719 78.324219 318.285156 77.425781 318.929688 76.964844 C 322.777344 74.199219 327.109375 72.097656 331.808594 70.714844 C 332.570312 70.492188 333.367188 70.929688 333.59375 71.691406 C 333.816406 72.453125 333.378906 73.25 332.621094 73.476562 C 328.230469 74.765625 324.191406 76.722656 320.605469 79.300781 C 320.472656 79.398438 320.324219 79.46875 320.171875 79.511719 Z M 320.171875 79.511719 " fill-opacity="1" fill-rule="nonzero"/></g></g></g></g><g clip-path="url(#0fecbc417d)"><g clip-path="url(#ac1442bb4c)"><g clip-path="url(#7e203bfdc1)"><g clip-path="url(#54efbffb40)"><path fill="#343434" d="M 294.777344 107.308594 C 294.175781 107.484375 293.503906 107.25 293.152344 106.691406 C 292.734375 106.015625 292.9375 105.128906 293.609375 104.707031 C 297.808594 102.074219 301.257812 98.808594 303.859375 95 L 307.476562 89.699219 C 307.925781 89.042969 308.816406 88.871094 309.472656 89.320312 C 310.128906 89.769531 310.296875 90.664062 309.847656 91.320312 L 306.230469 96.621094 C 303.40625 100.761719 299.671875 104.300781 295.132812 107.144531 C 295.019531 107.21875 294.898438 107.269531 294.777344 107.308594 Z M 294.777344 107.308594 " fill-opacity="1" fill-rule="nonzero"/></g></g></g></g><g clip-path="url(#496e5c42da)"><g clip-path="url(#be8ff79ef7)"><g clip-path="url(#48d0b18523)"><g clip-path="url(#3dac6c0505)"><path fill="#343434" d="M 65.140625 176.4375 C 56.355469 179.019531 46.769531 178.867188 38.46875 175.355469 L 28.496094 171.144531 C 21.078125 168.007812 12.292969 167.660156 3.75 170.171875 C 2.992188 170.394531 2.191406 169.960938 1.96875 169.199219 C 1.746094 168.4375 2.179688 167.636719 2.941406 167.414062 C 12.113281 164.714844 21.585938 165.101562 29.613281 168.496094 L 39.585938 172.707031 C 54.988281 179.222656 75.1875 173.285156 84.609375 159.46875 L 90.71875 150.527344 C 100.871094 135.636719 122.636719 129.238281 139.242188 136.261719 L 149.207031 140.476562 C 164.609375 146.984375 184.808594 141.042969 194.242188 127.234375 L 200.339844 118.296875 C 210.496094 103.40625 232.261719 97.007812 248.863281 104.027344 L 258.828125 108.242188 C 265.867188 111.214844 274.238281 111.675781 282.40625 109.53125 C 283.175781 109.332031 283.960938 109.789062 284.160156 110.558594 C 284.363281 111.328125 283.914062 112.144531 283.136719 112.3125 C 274.359375 114.617188 265.332031 114.113281 257.710938 110.890625 L 247.746094 106.679688 C 232.339844 100.160156 212.136719 106.101562 202.710938 119.917969 L 196.613281 128.855469 C 186.453125 143.738281 164.6875 150.136719 148.089844 143.125 L 138.125 138.910156 C 122.710938 132.390625 102.511719 138.332031 93.089844 152.152344 L 86.984375 161.09375 C 81.90625 168.53125 73.925781 173.855469 65.140625 176.4375 Z M 65.140625 176.4375 " fill-opacity="1" fill-rule="nonzero"/></g></g></g></g><g clip-path="url(#958048fff6)"><g clip-path="url(#74045d9f72)"><g clip-path="url(#1482038619)"><g clip-path="url(#0e798726f9)"><path fill="#343434" d="M 290.964844 134.34375 C 282.175781 136.925781 272.585938 136.773438 264.289062 133.265625 L 254.324219 129.050781 C 238.917969 122.535156 218.714844 128.472656 209.289062 142.292969 L 203.191406 151.230469 C 193.03125 166.109375 171.265625 172.511719 154.667969 165.5 L 144.703125 161.285156 C 129.289062 154.765625 109.089844 160.703125 99.671875 174.523438 L 93.5625 183.464844 C 88.523438 190.851562 80.53125 196.382812 71.070312 198.992188 C 70.304688 199.203125 69.515625 198.753906 69.300781 197.992188 C 69.089844 197.230469 69.527344 196.445312 70.28125 196.226562 C 70.289062 196.222656 70.292969 196.222656 70.300781 196.21875 C 79.128906 193.804688 86.53125 188.667969 91.1875 181.84375 L 97.296875 172.90625 C 107.445312 158.011719 129.210938 151.613281 145.820312 158.636719 L 155.785156 162.851562 C 171.1875 169.359375 191.386719 163.417969 200.816406 149.609375 L 206.917969 140.671875 C 217.070312 125.78125 238.839844 119.382812 255.441406 126.40625 L 265.40625 130.617188 C 280.804688 137.128906 301.007812 131.183594 310.4375 117.378906 L 316.542969 108.425781 C 321.460938 101.234375 329.21875 95.785156 338.386719 93.089844 C 339.148438 92.867188 339.945312 93.304688 340.171875 94.066406 C 340.394531 94.824219 339.960938 95.625 339.199219 95.847656 C 330.660156 98.359375 323.460938 103.402344 318.914062 110.050781 L 312.8125 119 C 307.730469 126.4375 299.75 131.757812 290.964844 134.34375 Z M 290.964844 134.34375 " fill-opacity="1" fill-rule="nonzero"/></g></g></g></g><g clip-path="url(#9faad1f1ac)"><g clip-path="url(#5937eed517)"><g clip-path="url(#4d81481d9d)"><g clip-path="url(#1214ca7bfb)"><path fill="#343434" d="M 52.199219 199.71875 C 51.980469 199.785156 51.742188 199.796875 51.5 199.746094 C 49.265625 199.273438 47.09375 198.59375 45.046875 197.730469 L 35.074219 193.519531 C 27.65625 190.382812 18.871094 190.035156 10.328125 192.546875 C 9.570312 192.769531 8.769531 192.332031 8.546875 191.570312 C 8.320312 190.8125 8.757812 190.011719 9.519531 189.789062 C 18.691406 187.089844 28.164062 187.476562 36.191406 190.871094 L 46.164062 195.082031 C 48.042969 195.875 50.039062 196.5 52.09375 196.933594 C 52.867188 197.097656 53.367188 197.859375 53.203125 198.636719 C 53.089844 199.171875 52.691406 199.574219 52.199219 199.71875 Z M 52.199219 199.71875 " fill-opacity="1" fill-rule="nonzero"/></g></g></g></g><g clip-path="url(#7f1a3ecd16)"><g clip-path="url(#cd177c665e)"><g clip-path="url(#d1a88f88bb)"><g clip-path="url(#dfdea89ea3)"><path fill="#343434" d="M 78.300781 221.1875 C 69.515625 223.769531 59.925781 223.613281 51.628906 220.105469 L 41.65625 215.894531 C 34.238281 212.753906 25.449219 212.410156 16.910156 214.921875 C 16.148438 215.144531 15.351562 214.707031 15.125 213.945312 C 14.902344 213.183594 15.335938 212.382812 16.097656 212.160156 C 25.273438 209.464844 34.746094 209.847656 42.769531 213.242188 L 52.746094 217.457031 C 68.148438 223.96875 88.34375 218.03125 97.769531 204.21875 L 103.878906 195.277344 C 114.027344 180.382812 135.792969 173.984375 152.402344 181.007812 L 162.367188 185.222656 C 177.769531 191.730469 197.96875 185.792969 207.398438 171.980469 L 213.496094 163.042969 C 223.652344 148.15625 245.421875 141.757812 262.023438 148.777344 L 271.988281 152.992188 C 287.386719 159.496094 307.589844 153.558594 317.019531 139.75 L 323.125 130.800781 C 328.039062 123.605469 335.800781 118.160156 344.96875 115.460938 C 345.730469 115.238281 346.527344 115.675781 346.753906 116.4375 C 346.976562 117.199219 346.539062 118 345.78125 118.222656 C 337.242188 120.730469 330.039062 125.773438 325.496094 132.425781 L 319.394531 141.375 C 309.234375 156.25 287.46875 162.65625 270.867188 155.640625 L 260.902344 151.425781 C 245.5 144.910156 225.296875 150.847656 215.871094 164.667969 L 209.769531 173.605469 C 199.613281 188.484375 177.84375 194.882812 161.25 187.871094 L 151.285156 183.660156 C 135.871094 177.140625 115.671875 183.078125 106.25 196.898438 L 100.140625 205.839844 C 95.0625 213.28125 87.082031 218.601562 78.300781 221.1875 Z M 78.300781 221.1875 " fill-opacity="1" fill-rule="nonzero"/></g></g></g></g><g clip-path="url(#8ccb45b39f)"><g clip-path="url(#1fde024cfd)"><g clip-path="url(#3e84c83a97)"><g clip-path="url(#4ab9718fa7)"><path fill="#343434" d="M 84.878906 243.558594 C 76.09375 246.144531 66.503906 245.988281 58.207031 242.480469 L 48.234375 238.265625 C 40.816406 235.128906 32.027344 234.785156 23.488281 237.296875 C 22.726562 237.519531 21.929688 237.082031 21.707031 236.320312 C 21.480469 235.558594 21.917969 234.761719 22.679688 234.535156 C 31.851562 231.839844 41.324219 232.222656 49.351562 235.617188 L 59.324219 239.832031 C 74.726562 246.34375 94.921875 240.40625 104.347656 226.59375 L 110.457031 217.652344 C 120.605469 202.757812 142.375 196.359375 158.980469 203.382812 L 168.945312 207.597656 C 184.347656 214.105469 204.546875 208.167969 213.976562 194.355469 L 220.074219 185.417969 C 230.234375 170.53125 252 164.128906 268.601562 171.152344 L 278.566406 175.367188 C 293.964844 181.871094 314.167969 175.933594 323.597656 162.125 L 329.703125 153.175781 C 334.621094 145.980469 342.378906 140.535156 351.546875 137.835938 C 352.308594 137.613281 353.109375 138.050781 353.332031 138.8125 C 353.554688 139.574219 353.121094 140.371094 352.359375 140.597656 C 343.824219 143.105469 336.621094 148.148438 332.078125 154.800781 L 325.972656 163.75 C 315.8125 178.625 294.046875 185.027344 277.449219 178.015625 L 267.480469 173.800781 C 252.078125 167.285156 231.875 173.226562 222.449219 187.042969 L 216.351562 195.980469 C 206.191406 210.859375 184.425781 217.257812 167.828125 210.246094 L 157.859375 206.035156 C 142.449219 199.511719 122.25 205.453125 112.828125 219.273438 L 106.722656 228.214844 C 101.644531 235.65625 93.660156 240.976562 84.878906 243.558594 Z M 84.878906 243.558594 " fill-opacity="1" fill-rule="nonzero"/></g></g></g></g><g clip-path="url(#0a9b8ccbd0)"><g clip-path="url(#140f195c54)"><g clip-path="url(#06d2f73e83)"><g clip-path="url(#ddbbe70a04)"><path fill="#343434" d="M 310.699219 201.464844 C 301.914062 204.046875 292.320312 203.894531 284.023438 200.390625 L 274.058594 196.175781 C 269.316406 194.167969 263.863281 193.285156 258.289062 193.625 C 257.496094 193.671875 256.816406 193.070312 256.769531 192.277344 C 256.71875 191.484375 257.324219 190.796875 258.113281 190.753906 C 264.128906 190.386719 270.027344 191.347656 275.175781 193.527344 L 285.140625 197.742188 C 300.542969 204.25 320.746094 198.308594 330.175781 184.5 L 336.28125 175.550781 C 341.199219 168.355469 348.957031 162.910156 358.125 160.214844 C 358.886719 159.988281 359.683594 160.425781 359.910156 161.1875 C 360.132812 161.949219 359.695312 162.75 358.9375 162.972656 C 350.402344 165.480469 343.195312 170.527344 338.652344 177.171875 L 332.546875 186.121094 C 327.46875 193.5625 319.484375 198.882812 310.699219 201.464844 Z M 310.699219 201.464844 " fill-opacity="1" fill-rule="nonzero"/></g></g></g></g><g clip-path="url(#e20a8b56b5)"><g clip-path="url(#baa91c0158)"><g clip-path="url(#0239cb5e73)"><g clip-path="url(#b565e5f160)"><path fill="#343434" d="M 91.457031 265.933594 C 82.671875 268.519531 73.085938 268.363281 64.785156 264.851562 L 54.8125 260.640625 C 47.394531 257.503906 38.605469 257.160156 30.066406 259.667969 C 29.304688 259.894531 28.507812 259.457031 28.285156 258.695312 C 28.058594 257.933594 28.496094 257.132812 29.257812 256.910156 C 38.429688 254.214844 47.902344 254.597656 55.929688 257.992188 L 65.902344 262.203125 C 81.304688 268.71875 101.503906 262.78125 110.925781 248.964844 L 117.035156 240.023438 C 127.183594 225.132812 148.953125 218.734375 165.558594 225.757812 L 175.523438 229.972656 C 190.925781 236.480469 211.125 230.539062 220.554688 216.730469 L 226.65625 207.792969 C 230.707031 201.855469 236.671875 197.113281 243.902344 194.078125 C 244.636719 193.78125 245.476562 194.117188 245.785156 194.851562 C 246.089844 195.582031 245.746094 196.425781 245.015625 196.730469 C 238.292969 199.550781 232.761719 203.9375 229.027344 209.414062 L 222.925781 218.351562 C 212.769531 233.230469 191 239.632812 174.40625 232.621094 L 164.4375 228.40625 C 149.027344 221.886719 128.828125 227.828125 119.40625 241.648438 L 113.296875 250.589844 C 108.222656 258.03125 100.242188 263.351562 91.457031 265.933594 Z M 91.457031 265.933594 " fill-opacity="1" fill-rule="nonzero"/></g></g></g></g><g clip-path="url(#00ff2eb5a9)"><g clip-path="url(#d19fbb0e94)"><g clip-path="url(#3bf8cfa930)"><g clip-path="url(#a40d099af4)"><path fill="#343434" d="M 317.277344 223.839844 C 308.492188 226.421875 298.902344 226.269531 290.605469 222.765625 L 280.636719 218.550781 C 265.234375 212.035156 245.03125 217.972656 235.605469 231.789062 L 229.507812 240.730469 C 219.347656 255.609375 197.582031 262.007812 180.984375 254.996094 L 171.019531 250.78125 C 155.605469 244.261719 135.40625 250.203125 125.984375 264.023438 L 119.878906 272.964844 C 119.429688 273.617188 118.535156 273.785156 117.882812 273.339844 C 117.226562 272.890625 117.058594 271.996094 117.503906 271.339844 L 123.613281 262.398438 C 133.765625 247.507812 155.53125 241.109375 172.136719 248.132812 L 182.101562 252.347656 C 197.503906 258.855469 217.703125 252.914062 227.136719 239.105469 L 233.234375 230.167969 C 243.390625 215.28125 265.15625 208.878906 281.757812 215.902344 L 291.722656 220.113281 C 307.125 226.625 327.328125 220.679688 336.753906 206.875 L 342.859375 197.921875 C 347.777344 190.730469 355.535156 185.28125 364.703125 182.585938 C 365.464844 182.363281 366.265625 182.800781 366.488281 183.5625 C 366.710938 184.324219 366.277344 185.121094 365.515625 185.347656 C 356.980469 187.855469 349.777344 192.898438 345.234375 199.546875 L 339.128906 208.496094 C 334.046875 215.9375 326.066406 221.257812 317.277344 223.839844 Z M 317.277344 223.839844 " fill-opacity="1" fill-rule="nonzero"/></g></g></g></g><g clip-path="url(#7418433f7d)"><g clip-path="url(#f637b18e0e)"><g clip-path="url(#ae47c52d59)"><g clip-path="url(#263493bdb3)"><path fill="#343434" d="M 98.027344 288.304688 C 97.125 288.570312 96.210938 288.808594 95.289062 289.015625 C 94.515625 289.1875 93.746094 288.699219 93.574219 287.925781 C 93.398438 287.152344 93.90625 286.390625 94.660156 286.207031 C 100.21875 284.957031 105.476562 282.550781 109.867188 279.253906 C 110.5 278.78125 111.402344 278.90625 111.878906 279.542969 C 112.355469 280.179688 112.226562 281.078125 111.59375 281.554688 C 107.609375 284.546875 102.964844 286.851562 98.027344 288.304688 Z M 98.027344 288.304688 " fill-opacity="1" fill-rule="nonzero"/></g></g></g></g><g clip-path="url(#58f13a6d9d)"><g clip-path="url(#20bb8843ec)"><g clip-path="url(#3bf9f87ddd)"><g clip-path="url(#4403de10ad)"><path fill="#343434" d="M 80.507812 289.578125 C 80.3125 289.636719 80.101562 289.652344 79.882812 289.621094 C 76.898438 289.160156 74.03125 288.355469 71.363281 287.226562 L 61.386719 283.015625 C 53.972656 279.878906 45.183594 279.535156 36.644531 282.042969 C 35.882812 282.269531 35.085938 281.832031 34.859375 281.070312 C 34.636719 280.308594 35.074219 279.507812 35.832031 279.285156 C 45.007812 276.589844 54.480469 276.972656 62.503906 280.367188 L 72.480469 284.578125 C 74.929688 285.613281 77.566406 286.355469 80.320312 286.777344 C 81.105469 286.898438 81.640625 287.632812 81.523438 288.417969 C 81.433594 288.988281 81.023438 289.425781 80.507812 289.578125 Z M 80.507812 289.578125 " fill-opacity="1" fill-rule="nonzero"/></g></g></g></g></svg>